<svg width="1920" height="1080" viewBox="0 0 1920 1080" fill="none" xmlns="http://www.w3.org/2000/svg">
<g id="bg-hero" clip-path="url(#clip0)">
<g id="Vector 7" filter="url(#filter0_f)">
<path d="M372.274 863.092C127.083 839.497 117.321 444.655 266.926 432.769C416.531 420.883 1089.41 786.574 1153.03 808.286C1216.65 829.999 501.441 898.764 372.274 863.092Z" fill="#EE4747" fill-opacity="0.3"/>
</g>
<g id="Vector 8" filter="url(#filter1_f)">
<path d="M1422.12 229.043C1667 255.694 1671.84 650.627 1522.1 660.647C1372.35 670.666 704.089 296.612 640.746 274.108C577.402 251.604 1293.41 191.763 1422.12 229.043Z" fill="#EE4747" fill-opacity="0.3"/>
</g>
<path id="bg-heroLine-2" d="M932.071 229.005C1115.22 80.9469 1392.61 149.467 1509.02 236.291C1625.44 323.115 1807.36 377.801 2085.98 243.577" stroke="url(#paint0_linear)" stroke-dasharray="2 2"/>
<path id="bg-heroLine-1" d="M-206 876.143C-20.209 778.231 177.438 779.008 367.307 876.143C568.84 964.428 786.937 949.815 936 876.143" stroke="url(#paint1_linear)"/>
<circle id="circle-8" cx="924" cy="233" r="9" fill="url(#paint2_linear)"/>
<circle id="circle-7" cx="941" cy="870" r="9" fill="url(#paint3_linear)"/>
<circle id="circle-6" cx="218.58" cy="427.58" r="70" transform="rotate(-119.907 218.58 427.58)" fill="url(#paint4_linear)" fill-opacity="0.5"/>
<circle id="circle-5" cx="365.04" cy="960.04" r="49.8307" transform="rotate(-119.907 365.04 960.04)" fill="url(#paint5_linear)" fill-opacity="0.5"/>
<circle id="circle-4" cx="1482.04" cy="766.04" r="49.8307" transform="rotate(-119.907 1482.04 766.04)" fill="url(#paint6_linear)" fill-opacity="0.5"/>
<circle id="circle-3" cx="1316.07" cy="235.577" r="32.2788" transform="rotate(-119.907 1316.07 235.577)" fill="url(#paint7_linear)" fill-opacity="0.5"/>
<path id="circle-2" d="M895.981 946.094C911.434 937.206 931.167 942.528 940.055 957.981C948.943 973.434 943.621 993.167 928.168 1002.06C912.715 1010.94 892.982 1005.62 884.094 990.168C875.205 974.715 880.527 954.982 895.981 946.094Z" fill="url(#paint8_linear)" fill-opacity="0.5"/>
<path id="circle-1" d="M1193.19 590.304C1208.64 581.415 1228.38 586.737 1237.26 602.19C1246.15 617.644 1240.83 637.377 1225.38 646.265C1209.92 655.153 1190.19 649.831 1181.3 634.378C1172.42 618.925 1177.74 599.192 1193.19 590.304Z" fill="url(#paint9_linear)" fill-opacity="0.5"/>
</g>
<defs>
<filter id="filter0_f" x="-298" y="-10.9998" width="1920.72" height="1414.65" filterUnits="userSpaceOnUse" color-interpolation-filters="sRGB">
<feFlood flood-opacity="0" result="BackgroundImageFix"/>
<feBlend mode="normal" in="SourceGraphic" in2="BackgroundImageFix" result="shape"/>
<feGaussianBlur stdDeviation="215" result="effect1_foregroundBlur"/>
</filter>
<filter id="filter1_f" x="168" y="-321" width="1923.96" height="1426.36" filterUnits="userSpaceOnUse" color-interpolation-filters="sRGB">
<feFlood flood-opacity="0" result="BackgroundImageFix"/>
<feBlend mode="normal" in="SourceGraphic" in2="BackgroundImageFix" result="shape"/>
<feGaussianBlur stdDeviation="215" result="effect1_foregroundBlur"/>
</filter>
<linearGradient id="paint0_linear" x1="1507.95" y1="321.062" x2="1510.16" y2="146.286" gradientUnits="userSpaceOnUse">
<stop stop-color="#EE4747" stop-opacity="0.08"/>
<stop offset="1" stop-color="#EE4747" stop-opacity="0.72"/>
</linearGradient>
<linearGradient id="paint1_linear" x1="365" y1="803" x2="365" y2="937" gradientUnits="userSpaceOnUse">
<stop stop-color="#EE4747" stop-opacity="0.08"/>
<stop offset="1" stop-color="#EE4747" stop-opacity="0.72"/>
</linearGradient>
<linearGradient id="paint2_linear" x1="924" y1="224" x2="924" y2="242" gradientUnits="userSpaceOnUse">
<stop stop-color="#EE4747" stop-opacity="0.08"/>
<stop offset="1" stop-color="#EE4747" stop-opacity="0.72"/>
</linearGradient>
<linearGradient id="paint3_linear" x1="941" y1="861" x2="941" y2="879" gradientUnits="userSpaceOnUse">
<stop stop-color="#EE4747" stop-opacity="0.08"/>
<stop offset="1" stop-color="#EE4747" stop-opacity="0.72"/>
</linearGradient>
<linearGradient id="paint4_linear" x1="218.58" y1="357.58" x2="218.58" y2="497.58" gradientUnits="userSpaceOnUse">
<stop stop-color="#EE4747" stop-opacity="0.08"/>
<stop offset="1" stop-color="#EE4747" stop-opacity="0.72"/>
</linearGradient>
<linearGradient id="paint5_linear" x1="365.04" y1="910.21" x2="365.04" y2="1009.87" gradientUnits="userSpaceOnUse">
<stop stop-color="#EE4747" stop-opacity="0.08"/>
<stop offset="1" stop-color="#EE4747" stop-opacity="0.72"/>
</linearGradient>
<linearGradient id="paint6_linear" x1="1482.04" y1="716.21" x2="1482.04" y2="815.871" gradientUnits="userSpaceOnUse">
<stop stop-color="#EE4747" stop-opacity="0.08"/>
<stop offset="1" stop-color="#EE4747" stop-opacity="0.72"/>
</linearGradient>
<linearGradient id="paint7_linear" x1="1316.07" y1="203.298" x2="1316.07" y2="267.856" gradientUnits="userSpaceOnUse">
<stop stop-color="#EE4747" stop-opacity="0.08"/>
<stop offset="1" stop-color="#EE4747" stop-opacity="0.72"/>
</linearGradient>
<linearGradient id="paint8_linear" x1="884.094" y1="990.168" x2="940.055" y2="957.981" gradientUnits="userSpaceOnUse">
<stop stop-color="#EE4747" stop-opacity="0.08"/>
<stop offset="1" stop-color="#EE4747" stop-opacity="0.72"/>
</linearGradient>
<linearGradient id="paint9_linear" x1="1181.3" y1="634.378" x2="1237.26" y2="602.19" gradientUnits="userSpaceOnUse">
<stop stop-color="#EE4747" stop-opacity="0.08"/>
<stop offset="1" stop-color="#EE4747" stop-opacity="0.72"/>
</linearGradient>
<clipPath id="clip0">
<rect width="1920" height="1080" fill="white"/>
</clipPath>
</defs>
</svg>
