<svg width="1920" height="1080" viewBox="0 0 1920 1080" fill="none" xmlns="http://www.w3.org/2000/svg">
<g id="bgHero" clip-path="url(#clip0)">
<g id="Vector 1115" filter="url(#filter0_f)">
<path d="M1680.98 847.855C769.985 822.753 489.415 374.508 172.588 387.267C-225.685 403.306 -151.477 823.751 172.588 983.948C554.572 1172.78 2298.34 864.867 1680.98 847.855Z" fill="url(#paint0_linear)" fill-opacity="0.4"/>
</g>
<g id="Vector 1114" filter="url(#filter1_f)">
<path d="M1099.29 444.407C1374.06 533.18 1675.39 744.257 1778.63 736.308C1963.45 722.076 1839.87 233.765 1614.12 95.015C1402.29 -35.1824 124.679 40.3752 495.949 315.168C693.471 461.363 865.456 368.856 1099.29 444.407Z" fill="url(#paint1_linear)" fill-opacity="0.1"/>
</g>
<path id="bg-heroline3" d="M854.407 536.076L854.13 536.492L854.13 536.492L854.407 536.076ZM-614.828 274.73C-275.576 194.573 -33.5518 176.505 186.248 220.213C406.05 263.922 603.679 369.417 854.13 536.492L854.685 535.66C604.205 368.565 406.442 262.98 186.443 219.232C-33.5582 175.484 -275.743 193.585 -615.058 273.757L-614.828 274.73ZM854.13 536.492C1275.74 817.748 1734.67 889.635 2247.28 784.752L2247.08 783.772C1734.69 888.609 1276.05 816.75 854.685 535.66L854.13 536.492Z" fill="url(#paint2_linear)"/>
<path id="bg-heroline2" d="M867.458 544.471L867.375 544.964L867.375 544.964L867.458 544.471ZM-580.013 907.489C-303.304 695.477 -89.8852 579.915 128.546 529.813C346.979 479.711 570.476 495.058 867.375 544.964L867.541 543.978C570.607 494.066 346.952 478.691 128.322 528.838C-90.3089 578.986 -303.861 694.644 -580.622 906.695L-580.013 907.489ZM867.375 544.964C1367.18 628.978 1815.31 506.696 2240.07 201.155L2239.49 200.343C1814.92 505.748 1367.05 627.942 867.541 543.978L867.375 544.964Z" fill="url(#paint3_linear)"/>
<path id="bg-heroline1" d="M889.454 631.467L889.46 631.967L889.46 631.967L889.454 631.467ZM-471.434 1243.79C-236.4 986.347 -46.6748 834.997 159.515 747.201C365.706 659.404 588.412 635.141 889.46 631.967L889.449 630.967C588.366 634.141 365.5 658.405 159.123 746.281C-47.2555 834.158 -237.095 985.625 -472.173 1243.11L-471.434 1243.79ZM889.46 631.967C1396.25 626.623 1815.83 427.312 2180.13 51.7254L2179.41 51.0291C1815.28 426.448 1395.94 625.626 889.449 630.967L889.46 631.967Z" fill="url(#paint4_linear)"/>
<rect id="square8" x="1047.91" y="612" width="42" height="42" rx="2" transform="rotate(22.2604 1047.91 612)" fill="url(#paint5_linear)" fill-opacity="0.6"/>
<rect id="square6" x="483" y="325.477" width="16" height="16" rx="2" transform="rotate(-20.0179 483 325.477)" fill="url(#paint6_linear)" fill-opacity="0.6"/>
<rect id="square5" x="1475.68" y="296.691" width="16" height="16" rx="2" transform="rotate(91.8123 1475.68 296.691)" fill="url(#paint7_linear)" fill-opacity="0.6"/>
<rect id="square4" x="789.777" y="956" width="16" height="16" rx="2" transform="rotate(80.4128 789.777 956)" fill="url(#paint8_linear)" fill-opacity="0.6"/>
<rect id="square3" x="1555.66" y="564" width="160" height="160" rx="4" transform="rotate(46.2939 1555.66 564)" fill="url(#paint9_linear)" fill-opacity="0.6"/>
<rect id="square1" x="951.56" y="229" width="72" height="72" rx="4" transform="rotate(25.1155 951.56 229)" fill="url(#paint10_linear)" fill-opacity="0.6"/>
<rect id="square2" x="308.724" y="758.12" width="48" height="48" rx="4" transform="rotate(124.402 308.724 758.12)" fill="url(#paint11_linear)" fill-opacity="0.6"/>
</g>
<defs>
<filter id="filter0_f" x="-235" y="251" width="2183" height="930" filterUnits="userSpaceOnUse" color-interpolation-filters="sRGB">
<feFlood flood-opacity="0" result="BackgroundImageFix"/>
<feBlend mode="normal" in="SourceGraphic" in2="BackgroundImageFix" result="shape"/>
<feGaussianBlur stdDeviation="68" result="effect1_foregroundBlur"/>
</filter>
<filter id="filter1_f" x="248" y="-291" width="1814.73" height="1426.83" filterUnits="userSpaceOnUse" color-interpolation-filters="sRGB">
<feFlood flood-opacity="0" result="BackgroundImageFix"/>
<feBlend mode="normal" in="SourceGraphic" in2="BackgroundImageFix" result="shape"/>
<feGaussianBlur stdDeviation="81" result="effect1_foregroundBlur"/>
</filter>
<linearGradient id="paint0_linear" x1="1617.61" y1="564.226" x2="1243.92" y2="1373.31" gradientUnits="userSpaceOnUse">
<stop stop-color="#385CEB"/>
<stop offset="1" stop-color="#4E1919" stop-opacity="0"/>
</linearGradient>
<linearGradient id="paint1_linear" x1="665.895" y1="720.52" x2="1142.8" y2="-129.098" gradientUnits="userSpaceOnUse">
<stop stop-color="#385CEB"/>
<stop offset="1" stop-color="#4E1919" stop-opacity="0"/>
</linearGradient>
<linearGradient id="paint2_linear" x1="2539.81" y1="610.711" x2="2388.85" y2="1134.3" gradientUnits="userSpaceOnUse">
<stop offset="0.0001" stop-color="#385CEB"/>
<stop offset="1" stop-color="#385CEB" stop-opacity="0.28"/>
</linearGradient>
<linearGradient id="paint3_linear" x1="2435.72" y1="-77.3891" x2="2512.33" y2="462.118" gradientUnits="userSpaceOnUse">
<stop offset="0.0001" stop-color="#385CEB"/>
<stop offset="1" stop-color="#385CEB" stop-opacity="0.28"/>
</linearGradient>
<linearGradient id="paint4_linear" x1="2323.65" y1="-256.928" x2="2494.1" y2="260.648" gradientUnits="userSpaceOnUse">
<stop offset="0.0001" stop-color="#385CEB"/>
<stop offset="1" stop-color="#385CEB" stop-opacity="0.28"/>
</linearGradient>
<linearGradient id="paint5_linear" x1="1093.63" y1="608.606" x2="1060.32" y2="646.124" gradientUnits="userSpaceOnUse">
<stop stop-color="#385CEB"/>
<stop offset="1" stop-color="#274AD7" stop-opacity="0.28"/>
</linearGradient>
<linearGradient id="paint6_linear" x1="500.418" y1="324.184" x2="487.729" y2="338.477" gradientUnits="userSpaceOnUse">
<stop stop-color="#385CEB"/>
<stop offset="1" stop-color="#274AD7" stop-opacity="0.28"/>
</linearGradient>
<linearGradient id="paint7_linear" x1="1493.1" y1="295.398" x2="1480.41" y2="309.691" gradientUnits="userSpaceOnUse">
<stop stop-color="#385CEB"/>
<stop offset="1" stop-color="#274AD7" stop-opacity="0.28"/>
</linearGradient>
<linearGradient id="paint8_linear" x1="807.195" y1="954.707" x2="794.506" y2="969" gradientUnits="userSpaceOnUse">
<stop stop-color="#385CEB"/>
<stop offset="1" stop-color="#274AD7" stop-opacity="0.28"/>
</linearGradient>
<linearGradient id="paint9_linear" x1="1729.84" y1="551.07" x2="1602.95" y2="693.996" gradientUnits="userSpaceOnUse">
<stop stop-color="#385CEB"/>
<stop offset="1" stop-color="#274AD7" stop-opacity="0.28"/>
</linearGradient>
<linearGradient id="paint10_linear" x1="1029.94" y1="223.182" x2="972.841" y2="287.498" gradientUnits="userSpaceOnUse">
<stop stop-color="#385CEB"/>
<stop offset="1" stop-color="#274AD7" stop-opacity="0.28"/>
</linearGradient>
<linearGradient id="paint11_linear" x1="360.978" y1="754.241" x2="322.912" y2="797.118" gradientUnits="userSpaceOnUse">
<stop stop-color="#385CEB"/>
<stop offset="1" stop-color="#274AD7" stop-opacity="0.28"/>
</linearGradient>
<clipPath id="clip0">
<rect width="1920" height="1080" fill="white"/>
</clipPath>
</defs>
</svg>
