<svg width="1920" height="1080" viewBox="0 0 1920 1080" fill="none" xmlns="http://www.w3.org/2000/svg">
<g id="bg-hero" clip-path="url(#clip0)">
<g id="Vector 1115" filter="url(#filter0_f)">
<path d="M1784.98 807.855C873.985 782.753 593.415 334.508 276.588 347.267C-121.685 363.306 -47.4774 783.751 276.588 943.948C658.572 1132.78 2402.34 824.867 1784.98 807.855Z" fill="url(#paint0_linear)" fill-opacity="0.4"/>
</g>
<g id="Vector 1114" filter="url(#filter1_f)">
<path d="M1203.29 404.406C1478.06 493.18 1779.39 704.257 1882.63 696.308C2067.45 682.076 1943.87 193.765 1718.12 55.0147C1506.29 -75.1826 228.679 0.374953 599.949 275.168C797.471 421.363 969.456 328.856 1203.29 404.406Z" fill="url(#paint1_linear)" fill-opacity="0.1"/>
</g>
<path id="bg-heroline3" d="M958.407 496.075L958.13 496.491L958.13 496.491L958.407 496.075ZM-510.828 234.73C-171.576 154.573 70.4482 136.505 290.248 180.213C510.05 223.921 707.679 329.417 958.13 496.491L958.685 495.66C708.205 328.565 510.442 222.98 290.443 179.232C70.4418 135.484 -171.743 153.585 -511.058 233.757L-510.828 234.73ZM958.13 496.491C1379.74 777.747 1838.67 849.635 2351.28 744.752L2351.08 743.772C1838.69 848.608 1380.05 776.75 958.685 495.66L958.13 496.491Z" fill="url(#paint2_linear)"/>
<path id="bg-heroline2" d="M971.458 504.471L971.375 504.964L971.375 504.964L971.458 504.471ZM-476.013 867.489C-199.304 655.476 14.1148 539.914 232.546 489.813C450.979 439.71 674.476 455.057 971.375 504.964L971.541 503.978C674.607 454.065 450.952 438.691 232.322 488.838C13.6911 538.986 -199.861 654.643 -476.622 866.695L-476.013 867.489ZM971.375 504.964C1471.18 588.978 1919.31 466.696 2344.07 161.155L2343.49 160.343C1918.92 465.747 1471.05 587.942 971.541 503.978L971.375 504.964Z" fill="url(#paint3_linear)"/>
<path id="bg-heroline1" d="M993.454 591.467L993.46 591.967L993.46 591.967L993.454 591.467ZM-367.434 1203.79C-132.4 946.347 57.3252 794.997 263.515 707.201C469.706 619.404 692.412 595.141 993.46 591.967L993.449 590.967C692.366 594.141 469.5 618.405 263.123 706.281C56.7445 794.158 -133.095 945.625 -368.173 1203.11L-367.434 1203.79ZM993.46 591.967C1500.25 586.623 1919.83 387.312 2284.13 11.7254L2283.41 11.0291C1919.28 386.448 1499.94 585.626 993.449 590.967L993.46 591.967Z" fill="url(#paint4_linear)"/>
<rect id="square8" x="1306.06" y="574" width="16" height="16" rx="2" transform="rotate(22.2604 1306.06 574)" fill="url(#paint5_linear)" fill-opacity="0.6"/>
<rect id="square6" x="587" y="285.477" width="16" height="16" rx="2" transform="rotate(-20.0179 587 285.477)" fill="url(#paint6_linear)" fill-opacity="0.6"/>
<rect id="square5" x="1579.68" y="256.691" width="16" height="16" rx="2" transform="rotate(91.8123 1579.68 256.691)" fill="url(#paint7_linear)" fill-opacity="0.6"/>
<rect id="square4" x="893.777" y="916" width="16" height="16" rx="2" transform="rotate(80.4128 893.777 916)" fill="url(#paint8_linear)" fill-opacity="0.6"/>
<rect id="square3" x="1659.66" y="524" width="160" height="160" rx="4" transform="rotate(46.2939 1659.66 524)" fill="url(#paint9_linear)" fill-opacity="0.6"/>
<rect id="square2" x="239.724" y="710.12" width="48" height="48" rx="4" transform="rotate(124.402 239.724 710.12)" fill="url(#paint10_linear)" fill-opacity="0.6"/>
<rect id="square1" x="1055.56" y="189" width="72" height="72" rx="4" transform="rotate(25.1155 1055.56 189)" fill="url(#paint11_linear)" fill-opacity="0.6"/>
</g>
<defs>
<filter id="filter0_f" x="-345" y="-3" width="2611" height="1358" filterUnits="userSpaceOnUse" color-interpolation-filters="sRGB">
<feFlood flood-opacity="0" result="BackgroundImageFix"/>
<feBlend mode="normal" in="SourceGraphic" in2="BackgroundImageFix" result="shape"/>
<feGaussianBlur stdDeviation="175" result="effect1_foregroundBlur"/>
</filter>
<filter id="filter1_f" x="232.71" y="-306.983" width="2039.59" height="1303.51" filterUnits="userSpaceOnUse" color-interpolation-filters="sRGB">
<feFlood flood-opacity="0" result="BackgroundImageFix"/>
<feBlend mode="normal" in="SourceGraphic" in2="BackgroundImageFix" result="shape"/>
<feGaussianBlur stdDeviation="150" result="effect1_foregroundBlur"/>
</filter>
<linearGradient id="paint0_linear" x1="1721.61" y1="524.226" x2="1347.92" y2="1333.31" gradientUnits="userSpaceOnUse">
<stop stop-color="#EE4747"/>
<stop offset="0.0001" stop-color="#EE4747"/>
<stop offset="1" stop-color="#4E1919" stop-opacity="0"/>
</linearGradient>
<linearGradient id="paint1_linear" x1="769.895" y1="680.519" x2="1246.8" y2="-169.098" gradientUnits="userSpaceOnUse">
<stop stop-color="#EE4747"/>
<stop offset="0.0001" stop-color="#EE4747"/>
<stop offset="1" stop-color="#4E1919" stop-opacity="0"/>
</linearGradient>
<linearGradient id="paint2_linear" x1="2643.81" y1="570.711" x2="2492.85" y2="1094.3" gradientUnits="userSpaceOnUse">
<stop stop-color="#DA2A2A"/>
<stop offset="0.0001" stop-color="#EE4747"/>
<stop offset="1" stop-color="#C41616" stop-opacity="0.28"/>
</linearGradient>
<linearGradient id="paint3_linear" x1="2539.72" y1="-117.389" x2="2616.33" y2="422.118" gradientUnits="userSpaceOnUse">
<stop stop-color="#DA2A2A"/>
<stop offset="0.0001" stop-color="#EE4747"/>
<stop offset="1" stop-color="#C41616" stop-opacity="0.28"/>
</linearGradient>
<linearGradient id="paint4_linear" x1="2427.65" y1="-296.928" x2="2598.1" y2="220.648" gradientUnits="userSpaceOnUse">
<stop stop-color="#DA2A2A"/>
<stop offset="0.0001" stop-color="#EE4747"/>
<stop offset="1" stop-color="#C41616" stop-opacity="0.28"/>
</linearGradient>
<linearGradient id="paint5_linear" x1="1323.48" y1="572.707" x2="1310.79" y2="587" gradientUnits="userSpaceOnUse">
<stop stop-color="#DA2A2A"/>
<stop offset="0.0001" stop-color="#EE4747"/>
<stop offset="1" stop-color="#C41616" stop-opacity="0.28"/>
</linearGradient>
<linearGradient id="paint6_linear" x1="604.418" y1="284.184" x2="591.729" y2="298.477" gradientUnits="userSpaceOnUse">
<stop stop-color="#DA2A2A"/>
<stop offset="0.0001" stop-color="#EE4747"/>
<stop offset="1" stop-color="#C41616" stop-opacity="0.28"/>
</linearGradient>
<linearGradient id="paint7_linear" x1="1597.1" y1="255.398" x2="1584.41" y2="269.691" gradientUnits="userSpaceOnUse">
<stop stop-color="#DA2A2A"/>
<stop offset="0.0001" stop-color="#EE4747"/>
<stop offset="1" stop-color="#C41616" stop-opacity="0.28"/>
</linearGradient>
<linearGradient id="paint8_linear" x1="911.195" y1="914.707" x2="898.506" y2="929" gradientUnits="userSpaceOnUse">
<stop stop-color="#DA2A2A"/>
<stop offset="0.0001" stop-color="#EE4747"/>
<stop offset="1" stop-color="#C41616" stop-opacity="0.28"/>
</linearGradient>
<linearGradient id="paint9_linear" x1="1833.84" y1="511.07" x2="1706.95" y2="653.996" gradientUnits="userSpaceOnUse">
<stop stop-color="#DA2A2A"/>
<stop offset="0.0001" stop-color="#EE4747"/>
<stop offset="1" stop-color="#C41616" stop-opacity="0.28"/>
</linearGradient>
<linearGradient id="paint10_linear" x1="291.978" y1="706.241" x2="253.912" y2="749.119" gradientUnits="userSpaceOnUse">
<stop stop-color="#DA2A2A"/>
<stop offset="0.0001" stop-color="#EE4747"/>
<stop offset="1" stop-color="#C41616" stop-opacity="0.28"/>
</linearGradient>
<linearGradient id="paint11_linear" x1="1133.94" y1="183.182" x2="1076.84" y2="247.498" gradientUnits="userSpaceOnUse">
<stop stop-color="#DA2A2A"/>
<stop offset="0.0001" stop-color="#EE4747"/>
<stop offset="1" stop-color="#C41616" stop-opacity="0.28"/>
</linearGradient>
<clipPath id="clip0">
<rect width="1920" height="1080" fill="white"/>
</clipPath>
</defs>
</svg>
