<svg width="1920" height="1080" viewBox="0 0 1920 1080" fill="none" xmlns="http://www.w3.org/2000/svg">
<g id="bg-hero" clip-path="url(#clip0)">
<circle id="circle-8" cx="1118" cy="410" r="9" fill="url(#paint0_linear)" fill-opacity="0.5"/>
<circle id="circle-7" cx="481" cy="737" r="9" fill="url(#paint1_linear)" fill-opacity="0.5"/>
<circle id="circle-3" cx="1494.07" cy="254.074" r="32.2788" transform="rotate(-8.47576 1494.07 254.074)" fill="url(#paint2_linear)" fill-opacity="0.5"/>
<path id="circle-2" d="M154.555 258.932C172.266 248.746 194.881 254.845 205.068 272.555C215.254 290.266 209.155 312.881 191.445 323.068C173.734 333.254 151.119 327.155 140.932 309.445C130.746 291.734 136.845 269.119 154.555 258.932Z" fill="url(#paint3_linear)" fill-opacity="0.5"/>
<path id="circle-1" d="M1315.19 615.304C1330.64 606.415 1350.38 611.737 1359.26 627.19C1368.15 642.644 1362.83 662.377 1347.38 671.265C1331.92 680.153 1312.19 674.831 1303.3 659.378C1294.42 643.925 1299.74 624.192 1315.19 615.304Z" fill="url(#paint4_linear)" fill-opacity="0.5"/>
<g id="Vector 1115" filter="url(#filter0_f)">
<path d="M1784.98 807.855C873.985 782.753 593.415 334.508 276.588 347.267C-121.685 363.306 -47.4774 783.751 276.588 943.948C658.572 1132.78 2402.34 824.867 1784.98 807.855Z" fill="url(#paint5_linear)" fill-opacity="0.4"/>
</g>
<g id="Vector 1114" filter="url(#filter1_f)">
<path d="M1203.29 404.406C1478.06 493.18 1779.39 704.257 1882.63 696.308C2067.45 682.076 1943.87 193.765 1718.12 55.0147C1506.29 -75.1826 228.679 0.374953 599.949 275.168C797.471 421.363 969.456 328.856 1203.29 404.406Z" fill="url(#paint6_linear)" fill-opacity="0.1"/>
</g>
<path id="bg-heroline3" d="M958.408 496.075L958.13 496.491L958.408 496.075ZM-510.828 234.73C-171.576 154.573 70.4482 136.505 290.248 180.213C510.05 223.921 707.679 329.416 958.13 496.491L958.685 495.66C708.205 328.565 510.442 222.98 290.443 179.232C70.4419 135.484 -171.743 153.585 -511.058 233.757L-510.828 234.73ZM958.13 496.491C1379.74 777.747 1838.67 849.635 2351.28 744.752L2351.08 743.772C1838.69 848.608 1380.05 776.75 958.685 495.66L958.13 496.491Z" fill="url(#paint7_linear)"/>
<path id="bg-heroline2" d="M971.458 504.471L971.375 504.964L971.458 504.471ZM-476.013 867.489C-199.304 655.476 14.1148 539.914 232.546 489.813C450.979 439.71 674.476 455.057 971.375 504.964L971.541 503.978C674.607 454.065 450.952 438.691 232.322 488.838C13.6911 538.985 -199.861 654.643 -476.622 866.695L-476.013 867.489ZM971.375 504.964C1471.18 588.978 1919.32 466.696 2344.07 161.155L2343.49 160.343C1918.92 465.747 1471.05 587.942 971.541 503.978L971.375 504.964Z" fill="url(#paint8_linear)"/>
<path id="bg-heroline1" d="M993.454 591.467L993.46 591.967L993.454 591.467ZM-367.434 1203.79C-132.4 946.347 57.3252 794.997 263.515 707.201C469.706 619.404 692.412 595.141 993.46 591.967L993.449 590.967C692.366 594.141 469.5 618.405 263.123 706.281C56.7445 794.158 -133.095 945.625 -368.173 1203.11L-367.434 1203.79ZM993.46 591.967C1500.25 586.623 1919.83 387.312 2284.13 11.7253L2283.41 11.0291C1919.28 386.448 1499.94 585.626 993.449 590.967L993.46 591.967Z" fill="url(#paint9_linear)"/>
</g>
<defs>
<filter id="filter0_f" x="-345" y="-3" width="2611" height="1358" filterUnits="userSpaceOnUse" color-interpolation-filters="sRGB">
<feFlood flood-opacity="0" result="BackgroundImageFix"/>
<feBlend mode="normal" in="SourceGraphic" in2="BackgroundImageFix" result="shape"/>
<feGaussianBlur stdDeviation="175" result="effect1_foregroundBlur"/>
</filter>
<filter id="filter1_f" x="214" y="-469" width="2090.73" height="1702.83" filterUnits="userSpaceOnUse" color-interpolation-filters="sRGB">
<feFlood flood-opacity="0" result="BackgroundImageFix"/>
<feBlend mode="normal" in="SourceGraphic" in2="BackgroundImageFix" result="shape"/>
<feGaussianBlur stdDeviation="150" result="effect1_foregroundBlur"/>
</filter>
<linearGradient id="paint0_linear" x1="1125.17" y1="405.848" x2="1112.3" y2="415.441" gradientUnits="userSpaceOnUse">
<stop stop-color="#EE4747"/>
<stop offset="0.0001" stop-color="#EE4747"/>
<stop offset="1" stop-color="#4E1919" stop-opacity="0"/>
</linearGradient>
<linearGradient id="paint1_linear" x1="488.169" y1="732.848" x2="475.301" y2="742.441" gradientUnits="userSpaceOnUse">
<stop stop-color="#EE4747"/>
<stop offset="0.0001" stop-color="#EE4747"/>
<stop offset="1" stop-color="#4E1919" stop-opacity="0"/>
</linearGradient>
<linearGradient id="paint2_linear" x1="1519.79" y1="239.184" x2="1473.63" y2="273.59" gradientUnits="userSpaceOnUse">
<stop stop-color="#EE4747"/>
<stop offset="0.0001" stop-color="#EE4747"/>
<stop offset="1" stop-color="#4E1919" stop-opacity="0"/>
</linearGradient>
<linearGradient id="paint3_linear" x1="202.473" y1="273.931" x2="149.57" y2="313.37" gradientUnits="userSpaceOnUse">
<stop stop-color="#EE4747"/>
<stop offset="0.0001" stop-color="#EE4747"/>
<stop offset="1" stop-color="#4E1919" stop-opacity="0"/>
</linearGradient>
<linearGradient id="paint4_linear" x1="1357" y1="628.391" x2="1310.84" y2="662.803" gradientUnits="userSpaceOnUse">
<stop stop-color="#EE4747"/>
<stop offset="0.0001" stop-color="#EE4747"/>
<stop offset="1" stop-color="#4E1919" stop-opacity="0"/>
</linearGradient>
<linearGradient id="paint5_linear" x1="1721.61" y1="524.226" x2="1347.92" y2="1333.31" gradientUnits="userSpaceOnUse">
<stop stop-color="#EE4747"/>
<stop offset="0.0001" stop-color="#EE4747"/>
<stop offset="1" stop-color="#4E1919" stop-opacity="0"/>
</linearGradient>
<linearGradient id="paint6_linear" x1="769.895" y1="680.519" x2="1246.8" y2="-169.098" gradientUnits="userSpaceOnUse">
<stop stop-color="#EE4747"/>
<stop offset="0.0001" stop-color="#EE4747"/>
<stop offset="1" stop-color="#4E1919" stop-opacity="0"/>
</linearGradient>
<linearGradient id="paint7_linear" x1="2077.96" y1="591.874" x2="1912.59" y2="1069.5" gradientUnits="userSpaceOnUse">
<stop stop-color="#EE4747"/>
<stop offset="0.0001" stop-color="#EE4747"/>
<stop offset="1" stop-color="#4E1919" stop-opacity="0"/>
</linearGradient>
<linearGradient id="paint8_linear" x1="2032.12" y1="133.564" x2="2076.77" y2="637.032" gradientUnits="userSpaceOnUse">
<stop stop-color="#EE4747"/>
<stop offset="0.0001" stop-color="#EE4747"/>
<stop offset="1" stop-color="#4E1919" stop-opacity="0"/>
</linearGradient>
<linearGradient id="paint9_linear" x1="1972.19" y1="39.5185" x2="2104.83" y2="527.248" gradientUnits="userSpaceOnUse">
<stop stop-color="#EE4747"/>
<stop offset="0.0001" stop-color="#EE4747"/>
<stop offset="1" stop-color="#4E1919" stop-opacity="0"/>
</linearGradient>
<clipPath id="clip0">
<rect width="1920" height="1080" fill="white"/>
</clipPath>
</defs>
</svg>
