<svg width="1920" height="1080" viewBox="0 0 1920 1080" fill="none" xmlns="http://www.w3.org/2000/svg">
<g id="bg-hero" clip-path="url(#clip0_102_82)">
<g id="Vector 1115" filter="url(#filter0_f_102_82)">
<path d="M1680.98 847.855C769.985 822.753 489.415 374.508 172.588 387.267C-225.685 403.306 -151.477 823.751 172.588 983.948C554.572 1172.78 2298.34 864.867 1680.98 847.855Z" fill="url(#paint0_linear_102_82)" fill-opacity="0.4"/>
</g>
<g id="Vector 1114" filter="url(#filter1_f_102_82)">
<path d="M1099.29 444.407C1374.06 533.18 1675.39 744.257 1778.63 736.308C1963.45 722.076 1839.87 233.765 1614.12 95.015C1402.29 -35.1824 124.679 40.3752 495.949 315.168C693.471 461.363 865.456 368.856 1099.29 444.407Z" fill="url(#paint1_linear_102_82)" fill-opacity="0.1"/>
</g>
</g>
<defs>
<filter id="filter0_f_102_82" x="-235" y="251" width="2183" height="930" filterUnits="userSpaceOnUse" color-interpolation-filters="sRGB">
<feFlood flood-opacity="0" result="BackgroundImageFix"/>
<feBlend mode="normal" in="SourceGraphic" in2="BackgroundImageFix" result="shape"/>
<feGaussianBlur stdDeviation="68" result="effect1_foregroundBlur_102_82"/>
</filter>
<filter id="filter1_f_102_82" x="266.71" y="-128.983" width="1763.59" height="1027.51" filterUnits="userSpaceOnUse" color-interpolation-filters="sRGB">
<feFlood flood-opacity="0" result="BackgroundImageFix"/>
<feBlend mode="normal" in="SourceGraphic" in2="BackgroundImageFix" result="shape"/>
<feGaussianBlur stdDeviation="81" result="effect1_foregroundBlur_102_82"/>
</filter>
<linearGradient id="paint0_linear_102_82" x1="1617.61" y1="564.226" x2="1243.92" y2="1373.31" gradientUnits="userSpaceOnUse">
<stop stop-color="#385CEB"/>
<stop offset="1" stop-color="#4E1919" stop-opacity="0"/>
</linearGradient>
<linearGradient id="paint1_linear_102_82" x1="665.895" y1="720.52" x2="1142.8" y2="-129.098" gradientUnits="userSpaceOnUse">
<stop stop-color="#385CEB"/>
<stop offset="1" stop-color="#4E1919" stop-opacity="0"/>
</linearGradient>
<clipPath id="clip0_102_82">
<rect width="1920" height="1080" fill="white"/>
</clipPath>
</defs>
</svg>
