<svg width="39" height="40" viewBox="0 0 39 40" fill="none" xmlns="http://www.w3.org/2000/svg">
<g clip-path="url(#clip0_407_246)">
<path d="M34.8214 0H4.17857C1.87165 0 0 1.88965 0 4.21875V35.1562C0 37.4854 1.87165 39.375 4.17857 39.375H34.8214C37.1283 39.375 39 37.4854 39 35.1562V4.21875C39 1.88965 37.1283 0 34.8214 0ZM21.2237 30.709C21.2237 34.541 18.9951 36.29 15.748 36.29C12.8143 36.29 11.1167 34.7607 10.2462 32.9062L13.2321 31.0869C13.8067 32.1152 14.329 32.9854 15.5913 32.9854C16.7926 32.9854 17.5587 32.5107 17.5587 30.6562V18.0791H21.2237V30.709ZM29.8942 36.29C26.4904 36.29 24.2879 34.6553 23.2172 32.5107L26.2031 30.7705C26.9866 32.0625 28.0138 33.0205 29.8158 33.0205C31.3306 33.0205 32.3056 32.2559 32.3056 31.1924C32.3056 29.9268 31.3132 29.4785 29.633 28.7314L28.719 28.3359C26.0725 27.2021 24.3228 25.7695 24.3228 22.7549C24.3228 19.9775 26.4208 17.8682 29.6853 17.8682C32.0183 17.8682 33.6897 18.6855 34.8911 20.8301L32.0357 22.6758C31.4089 21.542 30.7299 21.0938 29.6766 21.0938C28.6058 21.0938 27.9268 21.7793 27.9268 22.6758C27.9268 23.7832 28.6058 24.2314 30.1815 24.9258L31.0955 25.3213C34.2121 26.666 35.9618 28.0459 35.9618 31.1396C35.9618 34.4619 33.3676 36.29 29.8942 36.29Z" fill="#F7C427"/>
</g>
<defs>
<clipPath id="clip0_407_246">
<rect width="39" height="40" fill="white"/>
</clipPath>
</defs>
</svg>
