<svg width="46" height="37" viewBox="0 0 46 37" fill="none" xmlns="http://www.w3.org/2000/svg">
<g clip-path="url(#clip0_442_11)">
<path d="M28.2327 0.0864798C27.0108 -0.267622 25.7386 0.447808 25.3865 1.67632L16.1865 34.0513C15.8343 35.2798 16.5458 36.5589 17.7677 36.913C18.9896 37.2671 20.2618 36.5517 20.614 35.3232L29.814 2.9482C30.1661 1.71968 29.4546 0.440581 28.2327 0.0864798Z" fill="#C5C9D9"/>
<path d="M34.0259 8.76523L34.0222 8.76892C34.9209 7.86914 36.3773 7.87032 37.2746 8.77246L45.3246 16.8662C46.223 17.7695 46.223 19.2365 45.3246 20.1398L37.2746 28.2336C36.3762 29.1369 34.9171 29.1369 34.0187 28.2336C33.1202 27.3303 33.1202 25.8633 34.0187 24.96L40.4443 18.4994L34.0259 12.0389C33.1286 11.1368 33.1274 9.67254 34.0222 8.76892L34.0187 8.77246L34.0259 8.76523Z" fill="#385CEB"/>
<path d="M8.72578 8.76538C9.62422 7.86206 11.0833 7.86206 11.9817 8.76538C12.8802 9.6687 12.8802 11.1357 11.9817 12.039L5.55609 18.4996L11.9817 24.9529C12.8802 25.8562 12.8802 27.3232 11.9817 28.2265C11.0833 29.1298 9.62422 29.1298 8.72578 28.2265L0.675781 20.1328C-0.222656 19.2294 -0.222656 17.7625 0.675781 16.8591L8.72578 8.76538Z" fill="#385CEB"/>
</g>
<defs>
<clipPath id="clip0_442_11">
<rect width="46" height="37" fill="white"/>
</clipPath>
</defs>
</svg>
