<svg width="40" height="40" viewBox="0 0 40 40" fill="none" xmlns="http://www.w3.org/2000/svg">
<g clip-path="url(#clip0_408_271)">
<path d="M2.66357 25.2499C1.8721 22.739 1.64379 20.0887 2.10041 17.3609C2.29828 16.2294 2.60269 15.1445 2.93754 14.0441C2.93754 14.0441 5.038 7.02302 12.1461 3.81472C12.1461 3.81472 14.5966 2.4973 18.28 2.40431C18.28 2.40431 17.7777 1.90834 17.4581 1.69135C15.7229 0.513429 13.1354 0.125954 11.5677 1.78435C11.0958 2.28032 10.7001 2.82278 10.2587 3.31875C9.75642 3.87672 9.14759 4.34169 8.44744 4.60517C7.83861 4.83766 7.22978 4.79116 6.60573 4.89965C5.96646 5.00815 5.31197 5.24063 4.79447 5.6591C4.2313 6.12408 4.00299 6.74404 3.94211 7.45699C3.88123 8.01496 3.89645 8.58842 3.86601 9.14639C3.7899 10.7893 3.2724 11.2543 2.11563 12.1687C1.62856 12.5407 1.21761 13.0366 0.913192 13.5636C-4.98891e-05 15.2065 1.46114 16.9114 1.53724 18.5698C1.55246 18.9108 1.52202 19.2517 1.40025 19.5772C1.27849 19.9337 1.03496 20.1662 0.837089 20.4607C0.563116 20.8481 0.380468 21.3131 0.456571 21.7936C0.532675 22.2741 0.776206 22.7235 1.00452 23.142C1.44592 23.886 1.99386 24.5524 2.57225 25.1879C2.60269 25.1879 2.63313 25.2189 2.66357 25.2499Z" fill="#E32286"/>
<path d="M31.7047 31.2015C35.2054 29.6516 36.6971 26.9703 36.6971 26.9703C39.9695 22.4291 38.8584 17.6399 38.8584 17.6399C36.7732 22.2586 34.8706 23.5295 34.8706 23.5295C39.9999 15.5785 34.901 10.7738 34.901 10.7738C36.9862 15.2995 34.2161 20.8172 34.2161 20.8172C31.8873 25.8079 28.5844 27.5902 28.5844 27.5902C32.2678 28.2877 34.9771 25.7614 34.9771 25.7614C29.6955 31.5735 23.9725 31.2945 23.9725 31.2945C26.3774 34.0378 29.9847 33.8054 29.9847 33.8054C25.2663 34.9368 20.8371 33.3404 17.1993 30.2561C16.5144 29.6826 15.8599 29.0627 15.2511 28.3962C15.2511 28.3962 14.7031 27.8072 14.5966 27.6522L14.5814 27.6367C14.5053 30.5041 17.4429 33.1699 17.4429 33.1699C13.7595 31.62 12.07 28.2567 12.07 28.2567C12.07 28.2567 9.58899 23.948 11.385 19.0348C13.1811 14.1216 18.6149 13.0677 18.6149 13.0677C23.105 15.284 26.9101 15.9815 26.9101 15.9815C34.9314 17.3454 34.4748 13.3466 34.4748 13.3466C34.5509 9.90586 29.452 6.24809 29.452 6.24809C20.3652 -0.617972 12.1461 3.81475 12.1461 3.81475C5.038 7.02305 2.93754 14.0441 2.93754 14.0441C2.60269 15.1445 2.29827 16.2295 2.1004 17.3609C1.32415 21.9641 2.49614 26.3193 5.038 30.1941C8.99538 36.2077 15.4185 38.2846 15.4185 38.2846C24.9315 41.5704 31.4307 36.7347 31.4307 36.7347C37.4124 32.5499 38.6149 27.7142 38.6149 27.7142C33.7899 31.558 31.7047 31.2015 31.7047 31.2015ZM24.277 8.58845C24.7336 8.58845 25.0989 8.96042 25.0989 9.42539C25.0989 9.89036 24.7336 10.2623 24.277 10.2623C23.8203 10.2623 23.455 9.89036 23.455 9.42539C23.455 8.96042 23.8203 8.58845 24.277 8.58845Z" fill="url(#paint0_linear_408_271)"/>
<path d="M34.4597 13.3311C34.5358 9.89033 29.4369 6.23257 29.4369 6.23257C20.3501 -0.618002 12.1309 3.81472 12.1309 3.81472C5.02286 7.02302 2.9224 14.0441 2.9224 14.0441C2.51144 15.2375 2.14615 17.0664 2.14615 17.0664C1.70475 19.3602 1.90262 21.4836 1.90262 21.4836C2.08526 23.514 2.52667 24.8779 2.52667 24.8779C2.98329 26.3348 3.19638 26.7843 3.19638 26.7843C3.18115 26.7378 3.10505 26.3968 3.10505 26.3968C3.10505 26.3968 2.46578 23.266 3.05939 20.2592C3.05939 20.2592 3.57689 17.1284 5.67735 14.7105C5.67735 14.7105 9.08679 9.76634 15.4338 11.7037C15.4338 11.7037 16.8037 12.1997 17.2755 12.4477C17.7474 12.6802 18.5693 13.0366 18.5693 13.0366C23.0594 15.253 26.8646 15.9505 26.8646 15.9505C34.9163 17.3299 34.4597 13.3311 34.4597 13.3311ZM24.277 10.2778C23.8204 10.2778 23.4551 9.90583 23.4551 9.44086C23.4551 8.97589 23.8204 8.60392 24.277 8.60392C24.7337 8.60392 25.099 8.97589 25.099 9.44086C25.099 9.90583 24.7337 10.2778 24.277 10.2778Z" fill="url(#paint1_radial_408_271)"/>
<path d="M19.0715 7.10056L13.8812 5.45766C13.8508 5.45766 13.6986 5.38016 13.4246 5.45766C13.4246 5.45766 10.3653 6.24811 10.898 7.953C10.898 7.953 11.2176 9.02244 12.0852 10.0609L17.793 9.78189L19.0715 7.10056Z" fill="url(#paint2_linear_408_271)"/>
</g>
<defs>
<linearGradient id="paint0_linear_408_271" x1="6.30071" y1="36.4713" x2="25.6055" y2="16.3032" gradientUnits="userSpaceOnUse">
<stop stop-color="#E01D84"/>
<stop offset="0.401" stop-color="#DF1D85"/>
<stop offset="0.77" stop-color="#932C87"/>
<stop offset="1" stop-color="#5D2F88"/>
</linearGradient>
<radialGradient id="paint1_radial_408_271" cx="0" cy="0" r="1" gradientUnits="userSpaceOnUse" gradientTransform="translate(27.147 10.5108) rotate(0.139441) scale(18.5057 15.7574)">
<stop stop-color="#E01D84"/>
<stop offset="0.139" stop-color="#DE1E85"/>
<stop offset="0.285" stop-color="#D62085"/>
<stop offset="0.434" stop-color="#C92386"/>
<stop offset="0.586" stop-color="#B72786"/>
<stop offset="0.739" stop-color="#9D2B87"/>
<stop offset="0.891" stop-color="#7C2E88"/>
<stop offset="1" stop-color="#5D2F88"/>
</radialGradient>
<linearGradient id="paint2_linear_408_271" x1="10.8237" y1="7.7416" x2="19.0671" y2="7.7416" gradientUnits="userSpaceOnUse">
<stop stop-color="#E01D84"/>
<stop offset="0.238" stop-color="#DA1E85"/>
<stop offset="0.658" stop-color="#C72085"/>
<stop offset="0.999" stop-color="#B52284"/>
</linearGradient>
<clipPath id="clip0_408_271">
<rect width="39.0476" height="40" fill="white"/>
</clipPath>
</defs>
</svg>
