<svg width="20" height="21" viewBox="0 0 20 21" fill="none" xmlns="http://www.w3.org/2000/svg">
<path d="M6.68952 16.1443C6.68952 16.2256 6.59677 16.2906 6.47984 16.2906C6.34677 16.3028 6.25403 16.2378 6.25403 16.1443C6.25403 16.0631 6.34677 15.9981 6.46371 15.9981C6.58468 15.9859 6.68952 16.0509 6.68952 16.1443ZM5.43548 15.9615C5.40726 16.0428 5.4879 16.1362 5.60887 16.1606C5.71371 16.2012 5.83468 16.1606 5.85887 16.0793C5.88306 15.9981 5.80645 15.9046 5.68548 15.8681C5.58065 15.8396 5.46371 15.8803 5.43548 15.9615ZM7.21774 15.8925C7.10081 15.9209 7.02016 15.9981 7.03226 16.0915C7.04435 16.1728 7.14919 16.2256 7.27016 16.1971C7.3871 16.1687 7.46774 16.0915 7.45564 16.0103C7.44355 15.9331 7.33468 15.8803 7.21774 15.8925ZM9.87097 0.324951C4.27823 0.324951 0 4.60276 0 10.2375C0 14.7428 2.81452 18.5981 6.83468 19.955C7.35081 20.0484 7.53226 19.7275 7.53226 19.4634C7.53226 19.2115 7.52016 17.8221 7.52016 16.969C7.52016 16.969 4.69758 17.5784 4.10484 15.7584C4.10484 15.7584 3.64516 14.5762 2.98387 14.2715C2.98387 14.2715 2.06048 13.6337 3.04839 13.6459C3.04839 13.6459 4.05242 13.7271 4.60484 14.694C5.4879 16.2621 6.96774 15.8112 7.54435 15.5431C7.6371 14.8931 7.89919 14.4421 8.18952 14.174C5.93548 13.9221 3.66129 13.5931 3.66129 9.68495C3.66129 8.56776 3.96774 8.00714 4.6129 7.29214C4.50806 7.02808 4.16532 5.93933 4.71774 4.5337C5.56048 4.26964 7.5 5.63058 7.5 5.63058C8.30645 5.40308 9.17339 5.28526 10.0323 5.28526C10.8911 5.28526 11.7581 5.40308 12.5645 5.63058C12.5645 5.63058 14.504 4.26558 15.3468 4.5337C15.8992 5.94339 15.5565 7.02808 15.4516 7.29214C16.0968 8.0112 16.4919 8.57183 16.4919 9.68495C16.4919 13.6053 14.1169 13.9181 11.8629 14.174C12.2339 14.495 12.5484 15.1043 12.5484 16.059C12.5484 17.4281 12.5363 19.1221 12.5363 19.4553C12.5363 19.7193 12.7218 20.0403 13.2339 19.9468C17.2661 18.5981 20 14.7428 20 10.2375C20 4.60276 15.4637 0.324951 9.87097 0.324951ZM3.91935 14.3365C3.86694 14.3771 3.87903 14.4706 3.94758 14.5478C4.0121 14.6128 4.10484 14.6412 4.15726 14.5884C4.20968 14.5478 4.19758 14.4543 4.12903 14.3771C4.06452 14.3121 3.97177 14.2837 3.91935 14.3365ZM3.48387 14.0075C3.45565 14.0603 3.49597 14.1253 3.57661 14.1659C3.64113 14.2065 3.72177 14.1943 3.75 14.1375C3.77823 14.0846 3.7379 14.0196 3.65726 13.979C3.57661 13.9546 3.5121 13.9668 3.48387 14.0075ZM4.79032 15.4537C4.72581 15.5065 4.75 15.6284 4.84274 15.7056C4.93548 15.799 5.05242 15.8112 5.10484 15.7462C5.15726 15.6934 5.13306 15.5715 5.05242 15.4943C4.96371 15.4009 4.84274 15.3887 4.79032 15.4537ZM4.33065 14.8565C4.26613 14.8971 4.26613 15.0028 4.33065 15.0962C4.39516 15.1896 4.50403 15.2303 4.55645 15.1896C4.62097 15.1368 4.62097 15.0312 4.55645 14.9378C4.5 14.8443 4.39516 14.8037 4.33065 14.8565Z" fill="#385CEB"/>
</svg>
