<svg width="50" height="40" viewBox="0 0 50 40" fill="none" xmlns="http://www.w3.org/2000/svg">
<g clip-path="url(#clip0_408_285)">
<path d="M23.333 29.6031C23.2866 29.6875 23.3098 29.65 23.333 29.6031V29.6031ZM42.5914 22.8062C41.0366 22.8057 39.5026 23.1666 38.1078 23.8609C37.6518 22.9312 37.1802 22.1187 37.1029 21.5093C37.0101 20.7984 36.9097 20.3765 37.0179 19.5328C37.1261 18.689 37.6131 17.4937 37.6054 17.4078C37.5976 17.3218 37.4972 16.8922 36.5 16.8843C35.5027 16.8765 34.6447 17.0797 34.545 17.3453C34.3688 17.8307 34.2318 18.3297 34.1353 18.8375C33.9575 19.7515 32.1416 23.0172 31.1135 24.7203C30.7734 24.0562 30.4874 23.4703 30.4255 23.0015C30.3327 22.2906 30.2323 21.8687 30.3405 21.025C30.4487 20.1812 30.9357 18.9859 30.928 18.9C30.9202 18.814 30.8198 18.3843 29.8233 18.3765C28.8269 18.3687 27.9681 18.5718 27.8676 18.8375C27.7671 19.1031 27.6588 19.7281 27.4579 20.3297C27.2569 20.9312 24.8381 26.3687 24.205 27.7828C23.8803 28.5015 23.602 29.0797 23.401 29.4703C23.3701 29.5328 23.3469 29.5718 23.3314 29.6031C23.3546 29.564 23.3701 29.525 23.3701 29.5406C23.2 29.8765 23.0995 30.064 23.0995 30.064V30.0718C22.9681 30.3218 22.8213 30.5484 22.7517 30.5484C22.7053 30.5484 22.6048 29.8922 22.7749 28.9937C23.1382 27.1031 23.9963 24.1656 23.9885 24.064C23.9808 24.0093 24.1509 23.5015 23.4242 23.2281C22.7208 22.9703 22.4657 23.4 22.4038 23.4C22.342 23.4 22.2956 23.5562 22.2956 23.5562C22.2956 23.5562 23.0763 20.2437 20.7967 20.2437C19.3743 20.2437 17.3954 21.8218 16.4229 23.2515C15.8122 23.5875 14.4903 24.314 13.0989 25.0875C12.5655 25.3843 12.0167 25.689 11.4987 25.9781C11.4601 25.939 11.4292 25.9 11.3905 25.8609C8.62385 22.8765 3.51569 20.7672 3.73214 16.7593C3.80944 15.2984 4.31191 11.4625 13.555 6.80622C21.1306 2.99372 27.1873 4.0406 28.2301 6.36872C29.7298 9.68904 24.9919 15.8687 17.1248 16.7593C14.1263 17.0953 12.55 15.9234 12.1558 15.4859C11.7461 15.025 11.6843 15.0015 11.5297 15.0875C11.2746 15.2281 11.4369 15.6343 11.5297 15.8765C11.7616 16.4937 12.7278 17.5875 14.3736 18.1343C15.8192 18.6109 19.3349 18.8765 23.5858 17.2125C28.3615 15.3531 32.079 10.1734 30.989 5.83747C29.879 1.43122 22.6496 -0.0140889 15.8138 2.43904C11.7407 3.89997 7.33599 6.19685 4.16735 9.18904C0.403489 12.7515 -0.198699 15.8531 0.0486694 17.15C0.929146 21.7515 7.20457 24.7515 9.71614 26.9703C9.59245 27.0406 9.4765 27.1031 9.36827 27.1656C8.10901 27.7984 3.32475 30.3297 2.12734 33.0015C0.774541 36.0328 2.35151 38.2047 3.3866 38.5015C6.61707 39.4078 9.92485 37.775 11.702 35.0953C13.4792 32.4156 13.2636 28.9156 12.4441 27.3218C12.4364 27.2984 12.421 27.2828 12.4132 27.2593C12.7379 27.064 13.0703 26.8687 13.4027 26.6734C14.0435 26.2906 14.6697 25.939 15.2185 25.6343C14.9093 26.4781 14.6851 27.4937 14.5692 28.9625C14.43 30.6812 15.1335 32.9078 16.0457 33.7828C16.4476 34.1656 16.9339 34.1734 17.2354 34.1734C18.3021 34.1734 18.7814 33.2828 19.314 32.2203C19.9711 30.9234 20.5509 29.4156 20.5509 29.4156C20.5509 29.4156 19.8242 33.4937 21.8109 33.4937C22.5368 33.4937 23.2634 32.5484 23.5889 32.064V32.0718C23.5889 32.0718 23.6043 32.0406 23.643 31.9781C23.7203 31.8609 23.7589 31.7906 23.7589 31.7906V31.7672C24.0527 31.2593 24.6943 30.0953 25.6598 28.1734C26.9121 25.689 28.1095 22.5875 28.1095 22.5875C28.2252 23.2693 28.3853 23.9426 28.5888 24.6031C28.8052 25.3453 29.2613 26.1578 29.6247 26.9468C29.3309 27.3531 29.1531 27.5875 29.1531 27.5875C29.1537 27.5935 29.1564 27.599 29.1608 27.6031C28.9289 27.9156 28.6661 28.2515 28.3955 28.5797C27.4068 29.7672 26.2311 31.1265 26.0765 31.5172C25.8909 31.9781 25.9373 32.3218 26.2929 32.5875C26.5557 32.7906 27.0196 32.8218 27.5058 32.7828C28.3948 32.7203 29.0209 32.5015 29.3224 32.3609C29.8782 32.1595 30.4035 31.8808 30.8831 31.5328C31.8494 30.814 32.4369 29.7828 32.3828 28.4234C32.3519 27.6734 32.1123 26.9234 31.8185 26.2203C31.9035 26.0953 31.9963 25.9625 32.0813 25.8297C33.6112 23.5718 34.7939 21.0937 34.7939 21.0937C34.9096 21.7755 35.0697 22.4489 35.2732 23.1093C35.4587 23.7422 35.8212 24.4375 36.1536 25.1172C34.7166 26.2968 33.8276 27.664 33.5184 28.5625C32.9464 30.2265 33.3947 30.9765 34.2373 31.1484C34.6161 31.2265 35.1572 31.0469 35.5592 30.875C36.1562 30.674 36.7191 30.3815 37.2281 30.0078C38.1944 29.289 39.129 28.2812 39.0672 26.914C39.044 26.2968 38.8739 25.6797 38.6497 25.0859C39.8634 24.5703 41.4396 24.289 43.4495 24.5234C47.7537 25.0312 48.5963 27.75 48.4339 28.8828C48.2716 30.0156 47.3672 30.6484 47.0657 30.8359C46.7642 31.0234 46.6714 31.0937 46.6946 31.2343C46.7333 31.4375 46.8724 31.4297 47.1275 31.3828C47.4831 31.3203 49.384 30.4609 49.469 28.3593C49.5927 25.7031 47.0657 22.7812 42.5891 22.8047L42.5914 22.8062ZM9.41466 34.1109C7.99306 35.6812 5.99865 36.275 5.14137 35.775C4.22147 35.2343 4.58479 32.9234 6.33878 31.25C7.40556 30.2343 8.78077 29.2969 9.69295 28.7187C9.90166 28.5937 10.2031 28.4062 10.5742 28.1797C10.636 28.1406 10.667 28.125 10.667 28.125C10.7365 28.0781 10.8138 28.039 10.8911 27.9922C11.532 30.3672 10.9143 32.4609 9.41466 34.1093V34.1109ZM19.801 26.9703C19.3063 28.1968 18.2635 31.3218 17.6296 31.1578C17.0885 31.0172 16.7561 28.6343 17.5214 26.2906C17.9079 25.1109 18.7273 23.7047 19.2143 23.1578C19.9943 22.275 20.8524 21.9937 21.0533 22.3453C21.3239 22.8062 20.1102 26.2047 19.801 26.9703ZM28.3816 31.1109C28.1729 31.2203 27.9797 31.2906 27.8869 31.2359C27.8173 31.1968 27.9719 31.0484 27.9719 31.0484C27.9719 31.0484 29.0464 29.8843 29.4716 29.3531C29.719 29.0406 30.005 28.6734 30.3134 28.2672C30.3134 28.3062 30.3211 28.3453 30.3211 28.3922C30.3111 29.7906 28.9823 30.7359 28.3793 31.1109H28.3816ZM34.9972 29.5875C34.8426 29.4781 34.8658 29.1109 35.3837 27.9703C35.5847 27.525 36.0477 26.775 36.8525 26.0562C36.9435 26.3283 36.9931 26.6128 36.9993 26.9C36.9916 28.6578 35.747 29.314 34.998 29.5875H34.9972Z" fill="#C66394"/>
</g>
<defs>
<clipPath id="clip0_408_285">
<rect width="49.4737" height="40" fill="white"/>
</clipPath>
</defs>
</svg>
