<svg width="40" height="40" viewBox="0 0 40 40" fill="none" xmlns="http://www.w3.org/2000/svg">
<mask id="mask0_407_259" style="mask-type:luminance" maskUnits="userSpaceOnUse" x="0" y="0" width="40" height="40">
<path d="M35.4328 0.381897H4.03882C1.82968 0.381897 0.0388184 2.17276 0.0388184 4.3819V35.7758C0.0388184 37.985 1.82968 39.7758 4.03882 39.7758H35.4328C37.6419 39.7758 39.4328 37.985 39.4328 35.7758V4.3819C39.4328 2.17276 37.6419 0.381897 35.4328 0.381897Z" fill="white"/>
</mask>
<g mask="url(#mask0_407_259)">
<path d="M0.500488 20.0512V39.2865H38.9711V0.815857H0.500488V20.0512ZM31.5016 18.5123C32.4231 18.7262 33.2606 19.2081 33.9084 19.8973C34.265 20.2686 34.5751 20.682 34.8317 21.1283C34.8317 21.1776 33.1698 22.301 32.1572 22.9288C32.1203 22.9534 31.9726 22.7934 31.8095 22.5502C31.6246 22.2313 31.3619 21.9643 31.0461 21.7744C30.7301 21.5844 30.3712 21.4776 30.0029 21.4638C28.8364 21.3838 28.0855 21.9962 28.0916 23.0026C28.082 23.2532 28.1393 23.5018 28.2578 23.7228C28.5133 24.2553 28.9903 24.5722 30.4861 25.2185C33.2406 26.4034 34.4193 27.1852 35.1518 28.2962C35.9704 29.5273 36.152 31.5154 35.598 32.9865C34.9825 34.587 33.4744 35.6733 31.3416 36.0334C30.3675 36.145 29.3833 36.1347 28.4117 36.0027C26.9226 35.7572 25.551 35.0422 24.4969 33.9622C24.143 33.5713 23.4536 32.5526 23.4967 32.4787C23.609 32.3953 23.7273 32.3202 23.8506 32.254L25.2756 31.4662L26.3804 30.826L26.6113 31.1677C27.0009 31.7249 27.4966 32.1997 28.0701 32.5649C29.3012 33.2112 30.9815 33.122 31.8125 32.3741C32.0915 32.1 32.2656 31.7368 32.3044 31.3477C32.3432 30.9585 32.2443 30.5681 32.0249 30.2443C31.7171 29.8166 31.1016 29.4565 29.3812 28.7056C27.3961 27.8499 26.5405 27.3206 25.7588 26.4773C25.2707 25.9208 24.9104 25.2643 24.7032 24.5538C24.5485 23.742 24.5256 22.9107 24.6354 22.0917C25.0447 20.1743 26.482 18.8355 28.581 18.4385C29.553 18.3182 30.5376 18.3452 31.5016 18.5185V18.5123ZM22.4718 20.125V21.7008H17.4768V35.9288H13.9344V21.6977H8.9271V20.1589C8.91153 19.6282 8.92383 19.0971 8.96401 18.5677C8.98868 18.54 12.0417 18.54 15.7349 18.54H22.4534L22.4718 20.125Z" fill="#0076C6"/>
</g>
</svg>
