<svg width="20" height="20" viewBox="0 0 20 20" fill="none" xmlns="http://www.w3.org/2000/svg">
<rect x="0.5" y="0.5" width="19" height="19" rx="1.5" stroke="#385CEB"/>
<path d="M4.96044 15V7.224H6.27244V15H4.96044ZM5.61644 5.624C5.36044 5.624 5.1471 5.544 4.97644 5.384C4.81644 5.224 4.73644 5.016 4.73644 4.76C4.73644 4.504 4.81644 4.296 4.97644 4.136C5.1471 3.976 5.36044 3.896 5.61644 3.896C5.87244 3.896 6.08044 3.976 6.24044 4.136C6.4111 4.296 6.49644 4.504 6.49644 4.76C6.49644 5.016 6.4111 5.224 6.24044 5.384C6.08044 5.544 5.87244 5.624 5.61644 5.624ZM8.91356 15V7.224H10.0016L10.1136 8.344H10.1616C10.5349 7.97067 10.9296 7.66133 11.3456 7.416C11.7616 7.16 12.2362 7.032 12.7696 7.032C13.5909 7.032 14.1882 7.29333 14.5616 7.816C14.9456 8.328 15.1376 9.08 15.1376 10.072V15H13.8256V10.248C13.8256 9.512 13.7082 8.984 13.4736 8.664C13.2496 8.33333 12.8762 8.168 12.3536 8.168C11.9589 8.168 11.6016 8.26933 11.2816 8.472C10.9722 8.67467 10.6202 8.97333 10.2256 9.368V15H8.91356Z" fill="#385CEB"/>
</svg>
