<svg width="36" height="36" viewBox="0 0 36 36" fill="none" xmlns="http://www.w3.org/2000/svg">
<g id="icon-linkedin">
<path id="Vector" d="M9.30094 31.5H2.77031V10.4696H9.30094V31.5ZM6.03211 7.60081C3.94383 7.60081 2.25 5.87112 2.25 3.78284C2.25 2.77976 2.64847 1.81777 3.35775 1.10849C4.06704 0.399204 5.02903 0.000732422 6.03211 0.000732422C7.03519 0.000732422 7.99718 0.399204 8.70646 1.10849C9.41575 1.81777 9.81422 2.77976 9.81422 3.78284C9.81422 5.87112 8.11969 7.60081 6.03211 7.60081ZM33.743 31.5H27.2264V21.2625C27.2264 18.8227 27.1772 15.6938 23.831 15.6938C20.4356 15.6938 19.9153 18.3446 19.9153 21.0867V31.5H13.3917V10.4696H19.6552V13.3383H19.7466C20.6184 11.686 22.7482 9.94222 25.9256 9.94222C32.535 9.94222 33.75 14.2946 33.75 19.9477V31.5H33.743Z" fill="#DCDEE6"/>
</g>
</svg>
