<svg width="214" height="37" viewBox="0 0 214 37" fill="none" xmlns="http://www.w3.org/2000/svg">
<path d="M55.98 25C55.86 25 55.758 24.964 55.674 24.892C55.602 24.808 55.566 24.706 55.566 24.586V12.832C55.566 12.7 55.602 12.598 55.674 12.526C55.758 12.442 55.86 12.4 55.98 12.4H56.88C57.024 12.4 57.132 12.436 57.204 12.508C57.276 12.58 57.318 12.64 57.33 12.688L61.146 19.96L64.98 12.688C65.004 12.64 65.046 12.58 65.106 12.508C65.178 12.436 65.286 12.4 65.43 12.4H66.312C66.444 12.4 66.546 12.442 66.618 12.526C66.702 12.598 66.744 12.7 66.744 12.832V24.586C66.744 24.706 66.702 24.808 66.618 24.892C66.546 24.964 66.444 25 66.312 25H65.43C65.31 25 65.208 24.964 65.124 24.892C65.052 24.808 65.016 24.706 65.016 24.586V15.73L62.01 21.598C61.962 21.718 61.89 21.814 61.794 21.886C61.698 21.946 61.578 21.976 61.434 21.976H60.876C60.72 21.976 60.594 21.946 60.498 21.886C60.414 21.814 60.342 21.718 60.282 21.598L57.276 15.73V24.586C57.276 24.706 57.234 24.808 57.15 24.892C57.078 24.964 56.982 25 56.862 25H55.98ZM72.233 25.18C71.633 25.18 71.087 25.06 70.595 24.82C70.103 24.58 69.707 24.256 69.407 23.848C69.107 23.44 68.957 22.978 68.957 22.462C68.957 21.634 69.293 20.974 69.965 20.482C70.637 19.99 71.513 19.666 72.593 19.51L75.275 19.132V18.61C75.275 18.034 75.107 17.584 74.771 17.26C74.447 16.936 73.913 16.774 73.169 16.774C72.629 16.774 72.191 16.882 71.855 17.098C71.531 17.314 71.303 17.59 71.171 17.926C71.099 18.106 70.973 18.196 70.793 18.196H69.983C69.851 18.196 69.749 18.16 69.677 18.088C69.617 18.004 69.587 17.908 69.587 17.8C69.587 17.62 69.653 17.398 69.785 17.134C69.929 16.87 70.145 16.612 70.433 16.36C70.721 16.108 71.087 15.898 71.531 15.73C71.987 15.55 72.539 15.46 73.187 15.46C73.907 15.46 74.513 15.556 75.005 15.748C75.497 15.928 75.881 16.174 76.157 16.486C76.445 16.798 76.649 17.152 76.769 17.548C76.901 17.944 76.967 18.346 76.967 18.754V24.586C76.967 24.706 76.925 24.808 76.841 24.892C76.769 24.964 76.673 25 76.553 25H75.725C75.593 25 75.491 24.964 75.419 24.892C75.347 24.808 75.311 24.706 75.311 24.586V23.812C75.155 24.028 74.945 24.244 74.681 24.46C74.417 24.664 74.087 24.838 73.691 24.982C73.295 25.114 72.809 25.18 72.233 25.18ZM72.611 23.83C73.103 23.83 73.553 23.728 73.961 23.524C74.369 23.308 74.687 22.978 74.915 22.534C75.155 22.09 75.275 21.532 75.275 20.86V20.356L73.187 20.662C72.335 20.782 71.693 20.986 71.261 21.274C70.829 21.55 70.613 21.904 70.613 22.336C70.613 22.672 70.709 22.954 70.901 23.182C71.105 23.398 71.357 23.56 71.657 23.668C71.969 23.776 72.287 23.83 72.611 23.83ZM83.1208 25C82.4488 25 81.9028 24.874 81.4828 24.622C81.0628 24.358 80.7568 23.992 80.5648 23.524C80.3728 23.044 80.2768 22.48 80.2768 21.832V17.08H78.8728C78.7528 17.08 78.6508 17.044 78.5668 16.972C78.4948 16.888 78.4588 16.786 78.4588 16.666V16.054C78.4588 15.934 78.4948 15.838 78.5668 15.766C78.6508 15.682 78.7528 15.64 78.8728 15.64H80.2768V12.634C80.2768 12.514 80.3128 12.418 80.3848 12.346C80.4688 12.262 80.5708 12.22 80.6908 12.22H81.5368C81.6568 12.22 81.7528 12.262 81.8248 12.346C81.9088 12.418 81.9508 12.514 81.9508 12.634V15.64H84.1828C84.3028 15.64 84.3988 15.682 84.4708 15.766C84.5548 15.838 84.5968 15.934 84.5968 16.054V16.666C84.5968 16.786 84.5548 16.888 84.4708 16.972C84.3988 17.044 84.3028 17.08 84.1828 17.08H81.9508V21.706C81.9508 22.27 82.0468 22.714 82.2388 23.038C82.4308 23.362 82.7728 23.524 83.2648 23.524H84.3628C84.4828 23.524 84.5788 23.566 84.6508 23.65C84.7348 23.722 84.7768 23.818 84.7768 23.938V24.586C84.7768 24.706 84.7348 24.808 84.6508 24.892C84.5788 24.964 84.4828 25 84.3628 25H83.1208ZM86.93 25C86.81 25 86.708 24.964 86.624 24.892C86.552 24.808 86.516 24.706 86.516 24.586V12.634C86.516 12.514 86.552 12.418 86.624 12.346C86.708 12.262 86.81 12.22 86.93 12.22H87.83C87.962 12.22 88.064 12.262 88.136 12.346C88.208 12.418 88.244 12.514 88.244 12.634V16.828C88.568 16.42 88.964 16.09 89.432 15.838C89.9 15.586 90.494 15.46 91.214 15.46C91.994 15.46 92.654 15.634 93.194 15.982C93.746 16.318 94.16 16.792 94.436 17.404C94.724 18.004 94.868 18.706 94.868 19.51V24.586C94.868 24.706 94.832 24.808 94.76 24.892C94.688 24.964 94.586 25 94.454 25H93.554C93.434 25 93.332 24.964 93.248 24.892C93.176 24.808 93.14 24.706 93.14 24.586V19.6C93.14 18.76 92.936 18.106 92.528 17.638C92.12 17.158 91.52 16.918 90.728 16.918C89.984 16.918 89.384 17.158 88.928 17.638C88.472 18.106 88.244 18.76 88.244 19.6V24.586C88.244 24.706 88.208 24.808 88.136 24.892C88.064 24.964 87.962 25 87.83 25H86.93ZM101.193 25.18C99.9568 25.18 98.9728 24.802 98.2408 24.046C97.5088 23.278 97.1068 22.234 97.0348 20.914C97.0228 20.758 97.0168 20.56 97.0168 20.32C97.0168 20.068 97.0228 19.864 97.0348 19.708C97.0828 18.856 97.2808 18.112 97.6288 17.476C97.9768 16.828 98.4508 16.33 99.0508 15.982C99.6628 15.634 100.377 15.46 101.193 15.46C102.105 15.46 102.867 15.652 103.479 16.036C104.103 16.42 104.577 16.966 104.901 17.674C105.225 18.382 105.387 19.21 105.387 20.158V20.464C105.387 20.596 105.345 20.698 105.261 20.77C105.189 20.842 105.093 20.878 104.973 20.878H98.7448C98.7448 20.89 98.7448 20.914 98.7448 20.95C98.7448 20.986 98.7448 21.016 98.7448 21.04C98.7688 21.532 98.8768 21.994 99.0688 22.426C99.2608 22.846 99.5368 23.188 99.8968 23.452C100.257 23.716 100.689 23.848 101.193 23.848C101.625 23.848 101.985 23.782 102.273 23.65C102.561 23.518 102.795 23.374 102.975 23.218C103.155 23.05 103.275 22.924 103.335 22.84C103.443 22.684 103.527 22.594 103.587 22.57C103.647 22.534 103.743 22.516 103.875 22.516H104.739C104.859 22.516 104.955 22.552 105.027 22.624C105.111 22.684 105.147 22.774 105.135 22.894C105.123 23.074 105.027 23.296 104.847 23.56C104.667 23.812 104.409 24.064 104.073 24.316C103.737 24.568 103.329 24.778 102.849 24.946C102.369 25.102 101.817 25.18 101.193 25.18ZM98.7448 19.636H103.677V19.582C103.677 19.042 103.575 18.562 103.371 18.142C103.179 17.722 102.897 17.392 102.525 17.152C102.153 16.9 101.709 16.774 101.193 16.774C100.677 16.774 100.233 16.9 99.8608 17.152C99.5008 17.392 99.2248 17.722 99.0328 18.142C98.8408 18.562 98.7448 19.042 98.7448 19.582V19.636ZM111.031 25.18C110.263 25.18 109.609 25.012 109.069 24.676C108.541 24.328 108.139 23.848 107.863 23.236C107.587 22.624 107.449 21.922 107.449 21.13V16.054C107.449 15.934 107.485 15.838 107.557 15.766C107.641 15.682 107.743 15.64 107.863 15.64H108.763C108.883 15.64 108.979 15.682 109.051 15.766C109.135 15.838 109.177 15.934 109.177 16.054V21.04C109.177 22.828 109.957 23.722 111.517 23.722C112.261 23.722 112.855 23.488 113.299 23.02C113.755 22.54 113.983 21.88 113.983 21.04V16.054C113.983 15.934 114.019 15.838 114.091 15.766C114.175 15.682 114.277 15.64 114.397 15.64H115.279C115.411 15.64 115.513 15.682 115.585 15.766C115.657 15.838 115.693 15.934 115.693 16.054V24.586C115.693 24.706 115.657 24.808 115.585 24.892C115.513 24.964 115.411 25 115.279 25H114.451C114.331 25 114.229 24.964 114.145 24.892C114.073 24.808 114.037 24.706 114.037 24.586V23.794C113.713 24.214 113.317 24.55 112.849 24.802C112.393 25.054 111.787 25.18 111.031 25.18ZM121.607 25.18C120.935 25.18 120.359 25.096 119.879 24.928C119.399 24.76 119.009 24.556 118.709 24.316C118.409 24.076 118.181 23.836 118.025 23.596C117.881 23.356 117.803 23.164 117.791 23.02C117.779 22.888 117.821 22.786 117.917 22.714C118.013 22.642 118.109 22.606 118.205 22.606H118.997C119.069 22.606 119.123 22.618 119.159 22.642C119.207 22.654 119.267 22.702 119.339 22.786C119.495 22.954 119.669 23.122 119.861 23.29C120.053 23.458 120.287 23.596 120.563 23.704C120.851 23.812 121.205 23.866 121.625 23.866C122.237 23.866 122.741 23.752 123.137 23.524C123.533 23.284 123.731 22.936 123.731 22.48C123.731 22.18 123.647 21.94 123.479 21.76C123.323 21.58 123.035 21.418 122.615 21.274C122.207 21.13 121.643 20.98 120.923 20.824C120.203 20.656 119.633 20.452 119.213 20.212C118.793 19.96 118.493 19.666 118.313 19.33C118.133 18.982 118.043 18.592 118.043 18.16C118.043 17.716 118.175 17.29 118.439 16.882C118.703 16.462 119.087 16.12 119.591 15.856C120.107 15.592 120.749 15.46 121.517 15.46C122.141 15.46 122.675 15.538 123.119 15.694C123.563 15.85 123.929 16.048 124.217 16.288C124.505 16.516 124.721 16.744 124.865 16.972C125.009 17.2 125.087 17.392 125.099 17.548C125.111 17.668 125.075 17.77 124.991 17.854C124.907 17.926 124.811 17.962 124.703 17.962H123.947C123.863 17.962 123.791 17.944 123.731 17.908C123.683 17.872 123.635 17.83 123.587 17.782C123.467 17.626 123.323 17.47 123.155 17.314C122.999 17.158 122.789 17.032 122.525 16.936C122.273 16.828 121.937 16.774 121.517 16.774C120.917 16.774 120.467 16.9 120.167 17.152C119.867 17.404 119.717 17.722 119.717 18.106C119.717 18.334 119.783 18.538 119.915 18.718C120.047 18.898 120.299 19.06 120.671 19.204C121.043 19.348 121.595 19.504 122.327 19.672C123.119 19.828 123.743 20.038 124.199 20.302C124.655 20.566 124.979 20.872 125.171 21.22C125.363 21.568 125.459 21.97 125.459 22.426C125.459 22.93 125.309 23.392 125.009 23.812C124.721 24.232 124.289 24.568 123.713 24.82C123.149 25.06 122.447 25.18 121.607 25.18ZM130.868 25C130.772 25 130.688 24.964 130.616 24.892C130.544 24.82 130.508 24.736 130.508 24.64C130.508 24.58 130.514 24.514 130.526 24.442L134.99 12.796C135.038 12.676 135.104 12.58 135.188 12.508C135.272 12.436 135.398 12.4 135.566 12.4H136.79C136.946 12.4 137.066 12.436 137.15 12.508C137.246 12.58 137.318 12.676 137.366 12.796L141.812 24.442C141.836 24.514 141.848 24.58 141.848 24.64C141.848 24.736 141.812 24.82 141.74 24.892C141.668 24.964 141.584 25 141.488 25H140.57C140.426 25 140.318 24.964 140.246 24.892C140.186 24.82 140.144 24.754 140.12 24.694L139.13 22.138H133.226L132.236 24.694C132.224 24.754 132.182 24.82 132.11 24.892C132.038 24.964 131.93 25 131.786 25H130.868ZM133.748 20.59H138.608L136.178 14.2L133.748 20.59ZM143.359 25C143.239 25 143.137 24.964 143.053 24.892C142.981 24.808 142.945 24.706 142.945 24.586V23.956C142.945 23.848 142.969 23.746 143.017 23.65C143.077 23.554 143.137 23.464 143.197 23.38L148.165 17.062H143.521C143.401 17.062 143.299 17.026 143.215 16.954C143.143 16.882 143.107 16.78 143.107 16.648V16.054C143.107 15.934 143.143 15.838 143.215 15.766C143.299 15.682 143.401 15.64 143.521 15.64H149.929C150.049 15.64 150.145 15.682 150.217 15.766C150.301 15.838 150.343 15.934 150.343 16.054V16.72C150.343 16.828 150.313 16.924 150.253 17.008C150.205 17.092 150.151 17.182 150.091 17.278L145.177 23.578H150.289C150.409 23.578 150.505 23.614 150.577 23.686C150.661 23.758 150.703 23.86 150.703 23.992V24.586C150.703 24.706 150.661 24.808 150.577 24.892C150.505 24.964 150.409 25 150.289 25H143.359ZM155.307 25.18C154.707 25.18 154.161 25.06 153.669 24.82C153.177 24.58 152.781 24.256 152.481 23.848C152.181 23.44 152.031 22.978 152.031 22.462C152.031 21.634 152.367 20.974 153.039 20.482C153.711 19.99 154.587 19.666 155.667 19.51L158.349 19.132V18.61C158.349 18.034 158.181 17.584 157.845 17.26C157.521 16.936 156.987 16.774 156.243 16.774C155.703 16.774 155.265 16.882 154.929 17.098C154.605 17.314 154.377 17.59 154.245 17.926C154.173 18.106 154.047 18.196 153.867 18.196H153.057C152.925 18.196 152.823 18.16 152.751 18.088C152.691 18.004 152.661 17.908 152.661 17.8C152.661 17.62 152.727 17.398 152.859 17.134C153.003 16.87 153.219 16.612 153.507 16.36C153.795 16.108 154.161 15.898 154.605 15.73C155.061 15.55 155.613 15.46 156.261 15.46C156.981 15.46 157.587 15.556 158.079 15.748C158.571 15.928 158.955 16.174 159.231 16.486C159.519 16.798 159.723 17.152 159.843 17.548C159.975 17.944 160.041 18.346 160.041 18.754V24.586C160.041 24.706 159.999 24.808 159.915 24.892C159.843 24.964 159.747 25 159.627 25H158.799C158.667 25 158.565 24.964 158.493 24.892C158.421 24.808 158.385 24.706 158.385 24.586V23.812C158.229 24.028 158.019 24.244 157.755 24.46C157.491 24.664 157.161 24.838 156.765 24.982C156.369 25.114 155.883 25.18 155.307 25.18ZM155.685 23.83C156.177 23.83 156.627 23.728 157.035 23.524C157.443 23.308 157.761 22.978 157.989 22.534C158.229 22.09 158.349 21.532 158.349 20.86V20.356L156.261 20.662C155.409 20.782 154.767 20.986 154.335 21.274C153.903 21.55 153.687 21.904 153.687 22.336C153.687 22.672 153.783 22.954 153.975 23.182C154.179 23.398 154.431 23.56 154.731 23.668C155.043 23.776 155.361 23.83 155.685 23.83ZM163.043 25C162.923 25 162.821 24.964 162.737 24.892C162.665 24.808 162.629 24.706 162.629 24.586V16.054C162.629 15.934 162.665 15.838 162.737 15.766C162.821 15.682 162.923 15.64 163.043 15.64H163.853C163.973 15.64 164.069 15.682 164.141 15.766C164.225 15.838 164.267 15.934 164.267 16.054V16.684C164.543 16.312 164.891 16.018 165.311 15.802C165.731 15.574 166.235 15.46 166.823 15.46C168.179 15.448 169.139 16 169.703 17.116C169.979 16.612 170.381 16.21 170.909 15.91C171.437 15.61 172.037 15.46 172.709 15.46C173.333 15.46 173.897 15.604 174.401 15.892C174.917 16.18 175.319 16.618 175.607 17.206C175.907 17.782 176.057 18.508 176.057 19.384V24.586C176.057 24.706 176.015 24.808 175.931 24.892C175.859 24.964 175.763 25 175.643 25H174.797C174.677 25 174.575 24.964 174.491 24.892C174.419 24.808 174.383 24.706 174.383 24.586V19.546C174.383 18.874 174.287 18.346 174.095 17.962C173.903 17.578 173.645 17.308 173.321 17.152C172.997 16.996 172.643 16.918 172.259 16.918C171.947 16.918 171.629 16.996 171.305 17.152C170.981 17.308 170.711 17.578 170.495 17.962C170.291 18.346 170.189 18.874 170.189 19.546V24.586C170.189 24.706 170.147 24.808 170.063 24.892C169.991 24.964 169.895 25 169.775 25H168.929C168.809 25 168.707 24.964 168.623 24.892C168.551 24.808 168.515 24.706 168.515 24.586V19.546C168.515 18.874 168.413 18.346 168.209 17.962C168.005 17.578 167.741 17.308 167.417 17.152C167.093 16.996 166.751 16.918 166.391 16.918C166.079 16.918 165.761 16.996 165.437 17.152C165.113 17.308 164.843 17.578 164.627 17.962C164.423 18.346 164.321 18.868 164.321 19.528V24.586C164.321 24.706 164.279 24.808 164.195 24.892C164.123 24.964 164.027 25 163.907 25H163.043ZM183.251 25.18C182.531 25.18 181.931 25.054 181.451 24.802C180.971 24.538 180.587 24.214 180.299 23.83V24.586C180.299 24.706 180.257 24.808 180.173 24.892C180.101 24.964 180.005 25 179.885 25H179.057C178.937 25 178.835 24.964 178.751 24.892C178.679 24.808 178.643 24.706 178.643 24.586V12.634C178.643 12.514 178.679 12.418 178.751 12.346C178.835 12.262 178.937 12.22 179.057 12.22H179.921C180.053 12.22 180.155 12.262 180.227 12.346C180.299 12.418 180.335 12.514 180.335 12.634V16.774C180.635 16.402 181.019 16.09 181.487 15.838C181.967 15.586 182.555 15.46 183.251 15.46C183.923 15.46 184.493 15.58 184.961 15.82C185.441 16.048 185.831 16.366 186.131 16.774C186.443 17.182 186.677 17.644 186.833 18.16C186.989 18.676 187.073 19.216 187.085 19.78C187.097 19.972 187.103 20.152 187.103 20.32C187.103 20.488 187.097 20.668 187.085 20.86C187.073 21.436 186.989 21.982 186.833 22.498C186.677 23.014 186.443 23.476 186.131 23.884C185.831 24.28 185.441 24.598 184.961 24.838C184.493 25.066 183.923 25.18 183.251 25.18ZM182.873 23.722C183.497 23.722 183.983 23.59 184.331 23.326C184.691 23.05 184.949 22.696 185.105 22.264C185.261 21.82 185.351 21.346 185.375 20.842C185.387 20.494 185.387 20.146 185.375 19.798C185.351 19.294 185.261 18.826 185.105 18.394C184.949 17.95 184.691 17.596 184.331 17.332C183.983 17.056 183.497 16.918 182.873 16.918C182.309 16.918 181.841 17.05 181.469 17.314C181.097 17.578 180.815 17.914 180.623 18.322C180.443 18.73 180.347 19.144 180.335 19.564C180.323 19.756 180.317 19.99 180.317 20.266C180.317 20.53 180.323 20.758 180.335 20.95C180.359 21.394 180.455 21.832 180.623 22.264C180.803 22.684 181.073 23.032 181.433 23.308C181.805 23.584 182.285 23.722 182.873 23.722ZM192.822 25.18C192.054 25.18 191.4 25.012 190.86 24.676C190.332 24.328 189.93 23.848 189.654 23.236C189.378 22.624 189.24 21.922 189.24 21.13V16.054C189.24 15.934 189.276 15.838 189.348 15.766C189.432 15.682 189.534 15.64 189.654 15.64H190.554C190.674 15.64 190.77 15.682 190.842 15.766C190.926 15.838 190.968 15.934 190.968 16.054V21.04C190.968 22.828 191.748 23.722 193.308 23.722C194.052 23.722 194.646 23.488 195.09 23.02C195.546 22.54 195.774 21.88 195.774 21.04V16.054C195.774 15.934 195.81 15.838 195.882 15.766C195.966 15.682 196.068 15.64 196.188 15.64H197.07C197.202 15.64 197.304 15.682 197.376 15.766C197.448 15.838 197.484 15.934 197.484 16.054V24.586C197.484 24.706 197.448 24.808 197.376 24.892C197.304 24.964 197.202 25 197.07 25H196.242C196.122 25 196.02 24.964 195.936 24.892C195.864 24.808 195.828 24.706 195.828 24.586V23.794C195.504 24.214 195.108 24.55 194.64 24.802C194.184 25.054 193.578 25.18 192.822 25.18ZM198.698 28.42C198.578 28.42 198.482 28.378 198.41 28.294C198.326 28.222 198.284 28.126 198.284 28.006V27.394C198.284 27.274 198.326 27.172 198.41 27.088C198.482 27.016 198.578 26.98 198.698 26.98H198.95C199.382 26.98 199.7 26.896 199.904 26.728C200.108 26.572 200.24 26.362 200.3 26.098C200.372 25.834 200.408 25.534 200.408 25.198V16.054C200.408 15.934 200.444 15.838 200.516 15.766C200.6 15.682 200.702 15.64 200.822 15.64H201.704C201.824 15.64 201.92 15.682 201.992 15.766C202.076 15.838 202.118 15.934 202.118 16.054V25.216C202.118 25.852 202.016 26.41 201.812 26.89C201.62 27.37 201.302 27.742 200.858 28.006C200.414 28.282 199.808 28.42 199.04 28.42H198.698ZM200.678 13.894C200.558 13.894 200.456 13.858 200.372 13.786C200.3 13.702 200.264 13.6 200.264 13.48V12.508C200.264 12.388 200.3 12.292 200.372 12.22C200.456 12.136 200.558 12.094 200.678 12.094H201.83C201.95 12.094 202.052 12.136 202.136 12.22C202.22 12.292 202.262 12.388 202.262 12.508V13.48C202.262 13.6 202.22 13.702 202.136 13.786C202.052 13.858 201.95 13.894 201.83 13.894H200.678ZM207.409 25.18C206.809 25.18 206.263 25.06 205.771 24.82C205.279 24.58 204.883 24.256 204.583 23.848C204.283 23.44 204.133 22.978 204.133 22.462C204.133 21.634 204.469 20.974 205.141 20.482C205.813 19.99 206.689 19.666 207.769 19.51L210.451 19.132V18.61C210.451 18.034 210.283 17.584 209.947 17.26C209.623 16.936 209.089 16.774 208.345 16.774C207.805 16.774 207.367 16.882 207.031 17.098C206.707 17.314 206.479 17.59 206.347 17.926C206.275 18.106 206.149 18.196 205.969 18.196H205.159C205.027 18.196 204.925 18.16 204.853 18.088C204.793 18.004 204.763 17.908 204.763 17.8C204.763 17.62 204.829 17.398 204.961 17.134C205.105 16.87 205.321 16.612 205.609 16.36C205.897 16.108 206.263 15.898 206.707 15.73C207.163 15.55 207.715 15.46 208.363 15.46C209.083 15.46 209.689 15.556 210.181 15.748C210.673 15.928 211.057 16.174 211.333 16.486C211.621 16.798 211.825 17.152 211.945 17.548C212.077 17.944 212.143 18.346 212.143 18.754V24.586C212.143 24.706 212.101 24.808 212.017 24.892C211.945 24.964 211.849 25 211.729 25H210.901C210.769 25 210.667 24.964 210.595 24.892C210.523 24.808 210.487 24.706 210.487 24.586V23.812C210.331 24.028 210.121 24.244 209.857 24.46C209.593 24.664 209.263 24.838 208.867 24.982C208.471 25.114 207.985 25.18 207.409 25.18ZM207.787 23.83C208.279 23.83 208.729 23.728 209.137 23.524C209.545 23.308 209.863 22.978 210.091 22.534C210.331 22.09 210.451 21.532 210.451 20.86V20.356L208.363 20.662C207.511 20.782 206.869 20.986 206.437 21.274C206.005 21.55 205.789 21.904 205.789 22.336C205.789 22.672 205.885 22.954 206.077 23.182C206.281 23.398 206.533 23.56 206.833 23.668C207.145 23.776 207.463 23.83 207.787 23.83Z" fill="#EBEDF2"/>
<g clip-path="url(#clip0_442_9)">
<path d="M28.2327 0.0864798C27.0108 -0.267622 25.7386 0.447808 25.3865 1.67632L16.1865 34.0513C15.8343 35.2798 16.5458 36.5589 17.7677 36.913C18.9896 37.2671 20.2618 36.5517 20.614 35.3232L29.814 2.9482C30.1661 1.71968 29.4546 0.440581 28.2327 0.0864798Z" fill="#C5C9D9"/>
<path d="M34.0259 8.76523L34.0222 8.76892C34.9209 7.86914 36.3773 7.87032 37.2746 8.77246L45.3246 16.8662C46.223 17.7695 46.223 19.2365 45.3246 20.1398L37.2746 28.2336C36.3762 29.1369 34.9171 29.1369 34.0187 28.2336C33.1202 27.3303 33.1202 25.8633 34.0187 24.96L40.4443 18.4994L34.0259 12.0389C33.1286 11.1368 33.1274 9.67254 34.0222 8.76892L34.0187 8.77246L34.0259 8.76523Z" fill="#385CEB"/>
<path d="M8.72578 8.76538C9.62422 7.86206 11.0833 7.86206 11.9817 8.76538C12.8802 9.6687 12.8802 11.1357 11.9817 12.039L5.55609 18.4996L11.9817 24.9529C12.8802 25.8562 12.8802 27.3232 11.9817 28.2265C11.0833 29.1298 9.62422 29.1298 8.72578 28.2265L0.675781 20.1328C-0.222656 19.2294 -0.222656 17.7625 0.675781 16.8591L8.72578 8.76538Z" fill="#385CEB"/>
</g>
<defs>
<clipPath id="clip0_442_9">
<rect width="46" height="37" fill="white"/>
</clipPath>
</defs>
</svg>
