<svg width="1920" height="1080" viewBox="0 0 1920 1080" fill="none" xmlns="http://www.w3.org/2000/svg">
<g clip-path="url(#clip0)">
<rect width="1920" height="1080" fill="#050607"/>
<g filter="url(#filter0_f)">
<path d="M198.274 1023.09C-46.9174 999.497 -56.6791 604.654 92.9261 592.769C242.531 580.883 915.41 946.574 979.029 968.286C1042.65 989.999 327.441 1058.76 198.274 1023.09Z" fill="#EE4747" fill-opacity="0.3"/>
</g>
<g filter="url(#filter1_f)">
<path d="M1588.12 329.043C1833 355.694 1837.84 750.627 1688.1 760.647C1538.35 770.666 870.089 396.612 806.746 374.108C743.402 351.604 1459.41 291.763 1588.12 329.043Z" fill="#EE4747" fill-opacity="0.3"/>
</g>
<path d="M1018.07 238.005C1201.22 89.9466 1478.61 158.466 1595.02 245.291C1711.44 332.115 1893.36 386.801 2171.98 252.577" stroke="url(#paint0_linear)" stroke-dasharray="2 2"/>
<path d="M377.922 68.58C377.922 68.46 377.982 68.4 378.102 68.4H379.02C379.14 68.4 379.2 68.46 379.2 68.58V80.82C379.2 80.94 379.14 81 379.02 81H378.102C377.982 81 377.922 80.94 377.922 80.82V75.33C377.922 75.282 377.898 75.258 377.85 75.258H374.646C374.598 75.258 374.574 75.282 374.574 75.33V80.82C374.574 80.94 374.514 81 374.394 81H373.476C373.356 81 373.296 80.94 373.296 80.82V68.58C373.296 68.46 373.356 68.4 373.476 68.4H374.394C374.514 68.4 374.574 68.46 374.574 68.58V74.052C374.574 74.1 374.598 74.124 374.646 74.124H377.85C377.898 74.124 377.922 74.1 377.922 74.052V68.58ZM384.576 81.144C383.652 81.144 382.902 80.856 382.326 80.28C381.762 79.704 381.48 78.942 381.48 77.994V71.406C381.48 70.458 381.762 69.696 382.326 69.12C382.902 68.544 383.652 68.256 384.576 68.256C385.512 68.256 386.268 68.544 386.844 69.12C387.42 69.696 387.708 70.458 387.708 71.406V77.994C387.708 78.93 387.42 79.692 386.844 80.28C386.268 80.856 385.512 81.144 384.576 81.144ZM384.576 80.028C385.128 80.028 385.572 79.848 385.908 79.488C386.256 79.116 386.43 78.642 386.43 78.066V71.352C386.43 70.764 386.256 70.29 385.908 69.93C385.572 69.558 385.128 69.372 384.576 69.372C384.036 69.372 383.598 69.558 383.262 69.93C382.926 70.29 382.758 70.764 382.758 71.352V78.066C382.758 78.642 382.926 79.116 383.262 79.488C383.598 79.848 384.036 80.028 384.576 80.028ZM395.485 68.526C395.521 68.442 395.593 68.4 395.701 68.4H396.637C396.757 68.4 396.817 68.46 396.817 68.58V80.82C396.817 80.94 396.757 81 396.637 81H395.719C395.599 81 395.539 80.94 395.539 80.82V71.172C395.539 71.136 395.527 71.118 395.503 71.118C395.491 71.118 395.473 71.13 395.449 71.154L393.577 75.042C393.541 75.126 393.481 75.168 393.397 75.168C393.301 75.168 393.235 75.126 393.199 75.042L391.327 71.172C391.303 71.148 391.279 71.136 391.255 71.136C391.243 71.136 391.237 71.154 391.237 71.19V80.82C391.237 80.94 391.177 81 391.057 81H390.139C390.019 81 389.959 80.94 389.959 80.82V68.58C389.959 68.46 390.019 68.4 390.139 68.4H391.075C391.183 68.4 391.255 68.442 391.291 68.526L393.343 72.684C393.355 72.708 393.373 72.72 393.397 72.72C393.421 72.72 393.439 72.708 393.451 72.684L395.485 68.526ZM405.088 69.336C405.088 69.456 405.028 69.516 404.908 69.516H400.732C400.684 69.516 400.66 69.54 400.66 69.588V74.052C400.66 74.1 400.684 74.124 400.732 74.124H403.36C403.48 74.124 403.54 74.184 403.54 74.304V75.078C403.54 75.198 403.48 75.258 403.36 75.258H400.732C400.684 75.258 400.66 75.282 400.66 75.33V79.812C400.66 79.86 400.684 79.884 400.732 79.884H404.908C405.028 79.884 405.088 79.944 405.088 80.064V80.82C405.088 80.94 405.028 81 404.908 81H399.562C399.442 81 399.382 80.94 399.382 80.82V68.58C399.382 68.46 399.442 68.4 399.562 68.4H404.908C405.028 68.4 405.088 68.46 405.088 68.58V69.336Z" fill="#FBFBFB"/>
<path d="M937.786 68.526C937.822 68.442 937.894 68.4 938.002 68.4H938.938C939.058 68.4 939.118 68.46 939.118 68.58V80.82C939.118 80.94 939.058 81 938.938 81H938.02C937.9 81 937.84 80.94 937.84 80.82V71.172C937.84 71.136 937.828 71.118 937.804 71.118C937.792 71.118 937.774 71.13 937.75 71.154L935.878 75.042C935.842 75.126 935.782 75.168 935.698 75.168C935.602 75.168 935.536 75.126 935.5 75.042L933.628 71.172C933.604 71.148 933.58 71.136 933.556 71.136C933.544 71.136 933.538 71.154 933.538 71.19V80.82C933.538 80.94 933.478 81 933.358 81H932.44C932.32 81 932.26 80.94 932.26 80.82V68.58C932.26 68.46 932.32 68.4 932.44 68.4H933.376C933.484 68.4 933.556 68.442 933.592 68.526L935.644 72.684C935.656 72.708 935.674 72.72 935.698 72.72C935.722 72.72 935.74 72.708 935.752 72.684L937.786 68.526ZM946.435 81C946.327 81 946.261 80.946 946.237 80.838L945.787 78.606C945.787 78.582 945.775 78.564 945.751 78.552C945.739 78.54 945.721 78.534 945.697 78.534H942.439C942.415 78.534 942.391 78.54 942.367 78.552C942.355 78.564 942.349 78.582 942.349 78.606L941.899 80.838C941.887 80.946 941.821 81 941.701 81H940.783C940.723 81 940.675 80.982 940.639 80.946C940.615 80.91 940.609 80.862 940.621 80.802L943.321 68.562C943.345 68.454 943.411 68.4 943.519 68.4H944.599C944.719 68.4 944.785 68.454 944.797 68.562L947.533 80.802V80.838C947.533 80.946 947.479 81 947.371 81H946.435ZM942.583 77.418C942.583 77.466 942.601 77.49 942.637 77.49H945.481C945.517 77.49 945.535 77.466 945.535 77.418L944.095 70.344C944.083 70.308 944.071 70.29 944.059 70.29C944.047 70.29 944.035 70.308 944.023 70.344L942.583 77.418ZM953.519 68.4C953.639 68.4 953.699 68.46 953.699 68.58V69.336C953.699 69.456 953.639 69.516 953.519 69.516H951.143C951.095 69.516 951.071 69.54 951.071 69.588V80.82C951.071 80.94 951.011 81 950.891 81H949.973C949.853 81 949.793 80.94 949.793 80.82V69.588C949.793 69.54 949.769 69.516 949.721 69.516H947.489C947.369 69.516 947.309 69.456 947.309 69.336V68.58C947.309 68.46 947.369 68.4 947.489 68.4H953.519ZM960.231 68.58C960.231 68.46 960.291 68.4 960.411 68.4H961.329C961.449 68.4 961.509 68.46 961.509 68.58V80.82C961.509 80.94 961.449 81 961.329 81H960.411C960.291 81 960.231 80.94 960.231 80.82V75.33C960.231 75.282 960.207 75.258 960.159 75.258H956.955C956.907 75.258 956.883 75.282 956.883 75.33V80.82C956.883 80.94 956.823 81 956.703 81H955.785C955.665 81 955.605 80.94 955.605 80.82V68.58C955.605 68.46 955.665 68.4 955.785 68.4H956.703C956.823 68.4 956.883 68.46 956.883 68.58V74.052C956.883 74.1 956.907 74.124 956.955 74.124H960.159C960.207 74.124 960.231 74.1 960.231 74.052V68.58ZM969.678 69.336C969.678 69.456 969.618 69.516 969.498 69.516H965.322C965.274 69.516 965.25 69.54 965.25 69.588V74.052C965.25 74.1 965.274 74.124 965.322 74.124H967.95C968.07 74.124 968.13 74.184 968.13 74.304V75.078C968.13 75.198 968.07 75.258 967.95 75.258H965.322C965.274 75.258 965.25 75.282 965.25 75.33V79.812C965.25 79.86 965.274 79.884 965.322 79.884H969.498C969.618 79.884 969.678 79.944 969.678 80.064V80.82C969.678 80.94 969.618 81 969.498 81H964.152C964.032 81 963.972 80.94 963.972 80.82V68.58C963.972 68.46 964.032 68.4 964.152 68.4H969.498C969.618 68.4 969.678 68.46 969.678 68.58V69.336ZM974.659 81.144C973.735 81.144 972.991 80.826 972.427 80.19C971.863 79.554 971.581 78.714 971.581 77.67V68.58C971.581 68.46 971.641 68.4 971.761 68.4H972.679C972.799 68.4 972.859 68.46 972.859 68.58V77.814C972.859 78.474 973.021 79.008 973.345 79.416C973.681 79.824 974.119 80.028 974.659 80.028C975.211 80.028 975.655 79.824 975.991 79.416C976.327 79.008 976.495 78.474 976.495 77.814V68.58C976.495 68.46 976.555 68.4 976.675 68.4H977.593C977.713 68.4 977.773 68.46 977.773 68.58V77.67C977.773 78.714 977.485 79.554 976.909 80.19C976.345 80.826 975.595 81.144 974.659 81.144ZM982.697 81.144C981.809 81.144 981.089 80.85 980.537 80.262C979.985 79.674 979.709 78.906 979.709 77.958V77.544C979.709 77.424 979.769 77.364 979.889 77.364H980.771C980.891 77.364 980.951 77.424 980.951 77.544V77.904C980.951 78.54 981.113 79.056 981.437 79.452C981.761 79.836 982.181 80.028 982.697 80.028C983.201 80.028 983.621 79.842 983.957 79.47C984.293 79.098 984.461 78.606 984.461 77.994C984.461 77.586 984.377 77.238 984.209 76.95C984.053 76.65 983.843 76.392 983.579 76.176C983.327 75.948 982.901 75.606 982.301 75.15C981.701 74.706 981.227 74.328 980.879 74.016C980.531 73.692 980.243 73.308 980.015 72.864C979.799 72.42 979.691 71.898 979.691 71.298C979.691 70.362 979.961 69.624 980.501 69.084C981.041 68.532 981.743 68.256 982.607 68.256C983.519 68.256 984.245 68.556 984.785 69.156C985.337 69.744 985.613 70.53 985.613 71.514V71.964C985.613 72.084 985.553 72.144 985.433 72.144H984.533C984.413 72.144 984.353 72.084 984.353 71.964V71.496C984.353 70.86 984.191 70.35 983.867 69.966C983.555 69.57 983.135 69.372 982.607 69.372C982.127 69.372 981.731 69.546 981.419 69.894C981.107 70.23 980.951 70.71 980.951 71.334C980.951 71.706 981.017 72.036 981.149 72.324C981.293 72.6 981.503 72.864 981.779 73.116C982.055 73.368 982.463 73.698 983.003 74.106C983.723 74.634 984.257 75.066 984.605 75.402C984.965 75.726 985.241 76.086 985.433 76.482C985.625 76.866 985.721 77.334 985.721 77.886C985.721 78.87 985.439 79.662 984.875 80.262C984.311 80.85 983.585 81.144 982.697 81.144ZM988.028 80.964C987.728 80.964 987.482 80.868 987.29 80.676C987.11 80.484 987.02 80.244 987.02 79.956C987.02 79.656 987.11 79.416 987.29 79.236C987.482 79.044 987.728 78.948 988.028 78.948C988.316 78.948 988.556 79.044 988.748 79.236C988.94 79.416 989.036 79.656 989.036 79.956C989.036 80.244 988.94 80.484 988.748 80.676C988.556 80.868 988.316 80.964 988.028 80.964Z" fill="#FBFBFB"/>
<path d="M478.048 81C477.94 81 477.874 80.946 477.85 80.838L477.4 78.606C477.4 78.582 477.388 78.564 477.364 78.552C477.352 78.54 477.334 78.534 477.31 78.534H474.052C474.028 78.534 474.004 78.54 473.98 78.552C473.968 78.564 473.962 78.582 473.962 78.606L473.512 80.838C473.5 80.946 473.434 81 473.314 81H472.396C472.336 81 472.288 80.982 472.252 80.946C472.228 80.91 472.222 80.862 472.234 80.802L474.934 68.562C474.958 68.454 475.024 68.4 475.132 68.4H476.212C476.332 68.4 476.398 68.454 476.41 68.562L479.146 80.802V80.838C479.146 80.946 479.092 81 478.984 81H478.048ZM474.196 77.418C474.196 77.466 474.214 77.49 474.25 77.49H477.094C477.13 77.49 477.148 77.466 477.148 77.418L475.708 70.344C475.696 70.308 475.684 70.29 475.672 70.29C475.66 70.29 475.648 70.308 475.636 70.344L474.196 77.418ZM486.835 77.58C486.847 78.66 486.559 79.5 485.971 80.1C485.383 80.7 484.597 81 483.613 81H480.859C480.739 81 480.679 80.94 480.679 80.82V68.58C480.679 68.46 480.739 68.4 480.859 68.4H483.451C484.483 68.4 485.293 68.688 485.881 69.264C486.469 69.828 486.763 70.638 486.763 71.694C486.763 73.038 486.265 73.956 485.269 74.448C485.245 74.46 485.233 74.472 485.233 74.484C485.233 74.496 485.239 74.508 485.251 74.52C486.307 75.132 486.835 76.152 486.835 77.58ZM482.029 69.516C481.981 69.516 481.957 69.54 481.957 69.588V73.926C481.957 73.974 481.981 73.998 482.029 73.998H483.451C484.099 73.998 484.603 73.806 484.963 73.422C485.323 73.038 485.503 72.498 485.503 71.802C485.503 71.082 485.323 70.524 484.963 70.128C484.603 69.72 484.099 69.516 483.451 69.516H482.029ZM483.523 79.866C484.159 79.866 484.657 79.656 485.017 79.236C485.377 78.804 485.557 78.204 485.557 77.436C485.557 76.656 485.377 76.05 485.017 75.618C484.657 75.186 484.159 74.97 483.523 74.97H482.029C481.981 74.97 481.957 74.994 481.957 75.042V79.794C481.957 79.842 481.981 79.866 482.029 79.866H483.523ZM491.555 81.144C490.631 81.144 489.881 80.856 489.305 80.28C488.741 79.704 488.459 78.942 488.459 77.994V71.406C488.459 70.458 488.741 69.696 489.305 69.12C489.881 68.544 490.631 68.256 491.555 68.256C492.491 68.256 493.247 68.544 493.823 69.12C494.399 69.696 494.687 70.458 494.687 71.406V77.994C494.687 78.93 494.399 79.692 493.823 80.28C493.247 80.856 492.491 81.144 491.555 81.144ZM491.555 80.028C492.107 80.028 492.551 79.848 492.887 79.488C493.235 79.116 493.409 78.642 493.409 78.066V71.352C493.409 70.764 493.235 70.29 492.887 69.93C492.551 69.558 492.107 69.372 491.555 69.372C491.015 69.372 490.577 69.558 490.241 69.93C489.905 70.29 489.737 70.764 489.737 71.352V78.066C489.737 78.642 489.905 79.116 490.241 79.488C490.577 79.848 491.015 80.028 491.555 80.028ZM499.944 81.144C499.02 81.144 498.276 80.826 497.712 80.19C497.148 79.554 496.866 78.714 496.866 77.67V68.58C496.866 68.46 496.926 68.4 497.046 68.4H497.964C498.084 68.4 498.144 68.46 498.144 68.58V77.814C498.144 78.474 498.306 79.008 498.63 79.416C498.966 79.824 499.404 80.028 499.944 80.028C500.496 80.028 500.94 79.824 501.276 79.416C501.612 79.008 501.78 78.474 501.78 77.814V68.58C501.78 68.46 501.84 68.4 501.96 68.4H502.878C502.998 68.4 503.058 68.46 503.058 68.58V77.67C503.058 78.714 502.77 79.554 502.194 80.19C501.63 80.826 500.88 81.144 499.944 81.144ZM511.06 68.4C511.18 68.4 511.24 68.46 511.24 68.58V69.336C511.24 69.456 511.18 69.516 511.06 69.516H508.684C508.636 69.516 508.612 69.54 508.612 69.588V80.82C508.612 80.94 508.552 81 508.432 81H507.514C507.394 81 507.334 80.94 507.334 80.82V69.588C507.334 69.54 507.31 69.516 507.262 69.516H505.03C504.91 69.516 504.85 69.456 504.85 69.336V68.58C504.85 68.46 504.91 68.4 505.03 68.4H511.06Z" fill="#FBFBFB"/>
<path d="M394.192 350.472C394.384 350.024 394.768 349.8 395.344 349.8H400.336C400.976 349.8 401.296 350.12 401.296 350.76V416.04C401.296 416.68 400.976 417 400.336 417H395.44C394.8 417 394.48 416.68 394.48 416.04V364.584C394.48 364.392 394.416 364.296 394.288 364.296C394.224 364.296 394.128 364.36 394 364.488L384.016 385.224C383.824 385.672 383.504 385.896 383.056 385.896C382.544 385.896 382.192 385.672 382 385.224L372.016 364.584C371.888 364.456 371.76 364.392 371.632 364.392C371.568 364.392 371.536 364.488 371.536 364.68V416.04C371.536 416.68 371.216 417 370.576 417H365.68C365.04 417 364.72 416.68 364.72 416.04V350.76C364.72 350.12 365.04 349.8 365.68 349.8H370.672C371.248 349.8 371.632 350.024 371.824 350.472L382.768 372.648C382.832 372.776 382.928 372.84 383.056 372.84C383.184 372.84 383.28 372.776 383.344 372.648L394.192 350.472ZM440.319 417C439.743 417 439.391 416.712 439.263 416.136L436.863 404.232C436.863 404.104 436.799 404.008 436.671 403.944C436.607 403.88 436.511 403.848 436.383 403.848H419.007C418.879 403.848 418.751 403.88 418.623 403.944C418.559 404.008 418.527 404.104 418.527 404.232L416.127 416.136C416.063 416.712 415.711 417 415.071 417H410.175C409.855 417 409.599 416.904 409.407 416.712C409.279 416.52 409.247 416.264 409.311 415.944L423.711 350.664C423.839 350.088 424.191 349.8 424.767 349.8H430.527C431.167 349.8 431.519 350.088 431.583 350.664L446.175 415.944V416.136C446.175 416.712 445.887 417 445.311 417H440.319ZM419.775 397.896C419.775 398.152 419.871 398.28 420.062 398.28H435.231C435.423 398.28 435.519 398.152 435.519 397.896L427.839 360.168C427.775 359.976 427.711 359.88 427.647 359.88C427.583 359.88 427.519 359.976 427.455 360.168L419.775 397.896ZM478.103 349.8C478.743 349.8 479.063 350.12 479.063 350.76V354.792C479.063 355.432 478.743 355.752 478.103 355.752H465.431C465.175 355.752 465.047 355.88 465.047 356.136V416.04C465.047 416.68 464.727 417 464.087 417H459.191C458.551 417 458.231 416.68 458.231 416.04V356.136C458.231 355.88 458.103 355.752 457.847 355.752H445.943C445.303 355.752 444.983 355.432 444.983 354.792V350.76C444.983 350.12 445.303 349.8 445.943 349.8H478.103ZM513.897 350.76C513.897 350.12 514.217 349.8 514.857 349.8H519.753C520.393 349.8 520.713 350.12 520.713 350.76V416.04C520.713 416.68 520.393 417 519.753 417H514.857C514.217 417 513.897 416.68 513.897 416.04V386.76C513.897 386.504 513.769 386.376 513.513 386.376H496.424C496.169 386.376 496.041 386.504 496.041 386.76V416.04C496.041 416.68 495.721 417 495.081 417H490.185C489.545 417 489.225 416.68 489.225 416.04V350.76C489.225 350.12 489.545 349.8 490.185 349.8H495.081C495.721 349.8 496.041 350.12 496.041 350.76V379.944C496.041 380.2 496.169 380.328 496.424 380.328H513.513C513.769 380.328 513.897 380.2 513.897 379.944V350.76ZM564.282 354.792C564.282 355.432 563.962 355.752 563.322 355.752H541.049C540.794 355.752 540.666 355.88 540.666 356.136V379.944C540.666 380.2 540.794 380.328 541.049 380.328H555.066C555.706 380.328 556.026 380.648 556.026 381.288V385.416C556.026 386.056 555.706 386.376 555.066 386.376H541.049C540.794 386.376 540.666 386.504 540.666 386.76V410.664C540.666 410.92 540.794 411.048 541.049 411.048H563.322C563.962 411.048 564.282 411.368 564.282 412.008V416.04C564.282 416.68 563.962 417 563.322 417H534.81C534.17 417 533.85 416.68 533.85 416.04V350.76C533.85 350.12 534.17 349.8 534.81 349.8H563.322C563.962 349.8 564.282 350.12 564.282 350.76V354.792ZM590.846 417.768C585.918 417.768 581.95 416.072 578.942 412.68C575.934 409.288 574.43 404.808 574.43 399.24V350.76C574.43 350.12 574.75 349.8 575.39 349.8H580.286C580.926 349.8 581.246 350.12 581.246 350.76V400.008C581.246 403.528 582.11 406.376 583.838 408.552C585.63 410.728 587.966 411.816 590.846 411.816C593.79 411.816 596.158 410.728 597.95 408.552C599.742 406.376 600.638 403.528 600.638 400.008V350.76C600.638 350.12 600.958 349.8 601.598 349.8H606.494C607.134 349.8 607.454 350.12 607.454 350.76V399.24C607.454 404.808 605.918 409.288 602.846 412.68C599.838 416.072 595.838 417.768 590.846 417.768ZM633.718 417.768C628.982 417.768 625.142 416.2 622.198 413.064C619.254 409.928 617.782 405.832 617.782 400.776V398.568C617.782 397.928 618.102 397.608 618.742 397.608H623.446C624.086 397.608 624.406 397.928 624.406 398.568V400.488C624.406 403.88 625.27 406.632 626.998 408.744C628.726 410.792 630.966 411.816 633.718 411.816C636.406 411.816 638.646 410.824 640.438 408.84C642.23 406.856 643.126 404.232 643.126 400.968C643.126 398.792 642.678 396.936 641.782 395.4C640.95 393.8 639.83 392.424 638.422 391.272C637.078 390.056 634.806 388.232 631.606 385.8C628.406 383.432 625.878 381.416 624.022 379.752C622.166 378.024 620.63 375.976 619.414 373.608C618.262 371.24 617.686 368.456 617.686 365.256C617.686 360.264 619.126 356.328 622.006 353.448C624.886 350.504 628.63 349.032 633.238 349.032C638.102 349.032 641.974 350.632 644.854 353.832C647.798 356.968 649.27 361.16 649.27 366.408V368.808C649.27 369.448 648.95 369.768 648.31 369.768H643.51C642.87 369.768 642.55 369.448 642.55 368.808V366.312C642.55 362.92 641.686 360.2 639.958 358.152C638.294 356.04 636.054 354.984 633.238 354.984C630.678 354.984 628.566 355.912 626.902 357.768C625.238 359.56 624.406 362.12 624.406 365.448C624.406 367.432 624.758 369.192 625.462 370.728C626.23 372.2 627.35 373.608 628.822 374.952C630.294 376.296 632.47 378.056 635.35 380.232C639.19 383.048 642.038 385.352 643.894 387.144C645.814 388.872 647.286 390.792 648.31 392.904C649.334 394.952 649.846 397.448 649.846 400.392C649.846 405.64 648.342 409.864 645.334 413.064C642.326 416.2 638.454 417.768 633.718 417.768ZM705.162 417C704.586 417 704.234 416.712 704.106 416.136L701.706 404.232C701.706 404.104 701.642 404.008 701.514 403.944C701.45 403.88 701.354 403.848 701.226 403.848H683.85C683.722 403.848 683.594 403.88 683.466 403.944C683.402 404.008 683.37 404.104 683.37 404.232L680.97 416.136C680.906 416.712 680.554 417 679.914 417H675.018C674.698 417 674.442 416.904 674.25 416.712C674.122 416.52 674.09 416.264 674.154 415.944L688.554 350.664C688.682 350.088 689.034 349.8 689.61 349.8H695.37C696.01 349.8 696.362 350.088 696.426 350.664L711.018 415.944V416.136C711.018 416.712 710.73 417 710.154 417H705.162ZM684.618 397.896C684.618 398.152 684.714 398.28 684.906 398.28H700.074C700.266 398.28 700.362 398.152 700.362 397.896L692.682 360.168C692.618 359.976 692.554 359.88 692.49 359.88C692.426 359.88 692.362 359.976 692.298 360.168L684.618 397.896ZM716.409 417C715.769 417 715.449 416.68 715.449 416.04V411.624C715.449 411.304 715.545 410.92 715.737 410.472L739.065 356.232C739.129 356.104 739.129 356.008 739.065 355.944C739.001 355.816 738.905 355.752 738.777 355.752H716.409C715.769 355.752 715.449 355.432 715.449 354.792V350.76C715.449 350.12 715.769 349.8 716.409 349.8H745.497C746.137 349.8 746.457 350.12 746.457 350.76V355.176C746.457 355.432 746.361 355.816 746.169 356.328L722.937 410.568C722.873 410.696 722.873 410.824 722.937 410.952C723.001 411.016 723.097 411.048 723.225 411.048H745.497C746.137 411.048 746.457 411.368 746.457 412.008V416.04C746.457 416.68 746.137 417 745.497 417H716.409ZM782.412 417C781.836 417 781.484 416.712 781.356 416.136L778.956 404.232C778.956 404.104 778.892 404.008 778.764 403.944C778.7 403.88 778.604 403.848 778.476 403.848H761.1C760.972 403.848 760.844 403.88 760.716 403.944C760.652 404.008 760.62 404.104 760.62 404.232L758.22 416.136C758.156 416.712 757.804 417 757.164 417H752.268C751.948 417 751.692 416.904 751.5 416.712C751.372 416.52 751.34 416.264 751.404 415.944L765.804 350.664C765.932 350.088 766.284 349.8 766.86 349.8H772.62C773.26 349.8 773.612 350.088 773.676 350.664L788.268 415.944V416.136C788.268 416.712 787.98 417 787.404 417H782.412ZM761.868 397.896C761.868 398.152 761.964 398.28 762.156 398.28H777.324C777.516 398.28 777.612 398.152 777.612 397.896L769.932 360.168C769.868 359.976 769.804 359.88 769.74 359.88C769.676 359.88 769.612 359.976 769.548 360.168L761.868 397.896ZM825.723 350.472C825.915 350.024 826.299 349.8 826.875 349.8H831.867C832.507 349.8 832.827 350.12 832.827 350.76V416.04C832.827 416.68 832.507 417 831.867 417H826.971C826.331 417 826.011 416.68 826.011 416.04V364.584C826.011 364.392 825.947 364.296 825.819 364.296C825.755 364.296 825.659 364.36 825.531 364.488L815.547 385.224C815.355 385.672 815.035 385.896 814.587 385.896C814.075 385.896 813.723 385.672 813.531 385.224L803.547 364.584C803.419 364.456 803.291 364.392 803.163 364.392C803.099 364.392 803.067 364.488 803.067 364.68V416.04C803.067 416.68 802.747 417 802.107 417H797.211C796.571 417 796.251 416.68 796.251 416.04V350.76C796.251 350.12 796.571 349.8 797.211 349.8H802.203C802.779 349.8 803.163 350.024 803.355 350.472L814.299 372.648C814.363 372.776 814.459 372.84 814.587 372.84C814.715 372.84 814.811 372.776 814.875 372.648L825.723 350.472ZM879.338 398.76C879.402 404.52 877.866 409 874.73 412.2C871.594 415.4 867.402 417 862.154 417H847.466C846.826 417 846.506 416.68 846.506 416.04V350.76C846.506 350.12 846.826 349.8 847.466 349.8H861.29C866.794 349.8 871.114 351.336 874.25 354.408C877.386 357.416 878.954 361.736 878.954 367.368C878.954 374.536 876.298 379.432 870.986 382.056C870.858 382.12 870.794 382.184 870.794 382.248C870.794 382.312 870.826 382.376 870.89 382.44C876.522 385.704 879.338 391.144 879.338 398.76ZM853.706 355.752C853.45 355.752 853.322 355.88 853.322 356.136V379.272C853.322 379.528 853.45 379.656 853.706 379.656H861.29C864.746 379.656 867.434 378.632 869.354 376.584C871.274 374.536 872.234 371.656 872.234 367.944C872.234 364.104 871.274 361.128 869.354 359.016C867.434 356.84 864.746 355.752 861.29 355.752H853.706ZM861.674 410.952C865.066 410.952 867.722 409.832 869.642 407.592C871.562 405.288 872.522 402.088 872.522 397.992C872.522 393.832 871.562 390.6 869.642 388.296C867.722 385.992 865.066 384.84 861.674 384.84H853.706C853.45 384.84 853.322 384.968 853.322 385.224V410.568C853.322 410.824 853.45 410.952 853.706 410.952H861.674ZM905.471 417.768C900.543 417.768 896.575 416.072 893.567 412.68C890.559 409.288 889.055 404.808 889.055 399.24V350.76C889.055 350.12 889.375 349.8 890.015 349.8H894.911C895.551 349.8 895.871 350.12 895.871 350.76V400.008C895.871 403.528 896.735 406.376 898.463 408.552C900.255 410.728 902.591 411.816 905.471 411.816C908.415 411.816 910.783 410.728 912.575 408.552C914.367 406.376 915.263 403.528 915.263 400.008V350.76C915.263 350.12 915.583 349.8 916.223 349.8H921.119C921.759 349.8 922.079 350.12 922.079 350.76V399.24C922.079 404.808 920.543 409.288 917.471 412.68C914.463 416.072 910.463 417.768 905.471 417.768ZM946.423 417.768C941.687 417.768 937.847 416.296 934.903 413.352C931.959 410.344 930.487 406.408 930.487 401.544V393.48C930.487 392.84 930.807 392.52 931.447 392.52H936.343C936.983 392.52 937.303 392.84 937.303 393.48V401.64C937.303 404.648 938.135 407.112 939.799 409.032C941.463 410.888 943.671 411.816 946.423 411.816C949.111 411.816 951.287 410.888 952.951 409.032C954.679 407.112 955.543 404.648 955.543 401.64V350.76C955.543 350.12 955.863 349.8 956.503 349.8H961.399C962.039 349.8 962.359 350.12 962.359 350.76V401.544C962.359 406.408 960.887 410.344 957.943 413.352C954.999 416.296 951.159 417.768 946.423 417.768ZM1000.94 417C1000.37 417 1000.02 416.712 999.888 416.136L997.488 404.232C997.488 404.104 997.424 404.008 997.296 403.944C997.232 403.88 997.136 403.848 997.008 403.848H979.632C979.504 403.848 979.376 403.88 979.248 403.944C979.184 404.008 979.152 404.104 979.152 404.232L976.752 416.136C976.688 416.712 976.336 417 975.696 417H970.8C970.48 417 970.224 416.904 970.032 416.712C969.904 416.52 969.872 416.264 969.936 415.944L984.336 350.664C984.464 350.088 984.816 349.8 985.392 349.8H991.152C991.792 349.8 992.144 350.088 992.208 350.664L1006.8 415.944V416.136C1006.8 416.712 1006.51 417 1005.94 417H1000.94ZM980.4 397.896C980.4 398.152 980.496 398.28 980.688 398.28H995.856C996.048 398.28 996.144 398.152 996.144 397.896L988.464 360.168C988.4 359.976 988.336 359.88 988.272 359.88C988.208 359.88 988.144 359.976 988.08 360.168L980.4 397.896Z" fill="#FBFBFB"/>
<path d="M1395.1 83C1394.99 83 1394.92 82.946 1394.9 82.838L1392.52 70.598V70.562C1392.52 70.454 1392.58 70.4 1392.68 70.4H1393.64C1393.76 70.4 1393.82 70.454 1393.84 70.562L1395.53 80.03C1395.54 80.054 1395.55 80.066 1395.56 80.066C1395.58 80.066 1395.59 80.054 1395.6 80.03L1397.06 70.562C1397.08 70.454 1397.14 70.4 1397.24 70.4H1398.07C1398.17 70.4 1398.23 70.454 1398.25 70.562L1399.78 80.03C1399.79 80.054 1399.8 80.066 1399.81 80.066C1399.82 80.066 1399.84 80.054 1399.85 80.03L1401.4 70.562C1401.42 70.454 1401.48 70.4 1401.58 70.4H1402.53C1402.59 70.4 1402.63 70.418 1402.66 70.454C1402.69 70.49 1402.7 70.538 1402.69 70.598L1400.46 82.838C1400.45 82.946 1400.38 83 1400.26 83H1399.38C1399.28 83 1399.22 82.946 1399.2 82.838L1397.69 73.334C1397.68 73.31 1397.66 73.298 1397.63 73.298C1397.62 73.298 1397.62 73.31 1397.62 73.334L1396.14 82.838C1396.13 82.946 1396.07 83 1395.96 83H1395.1ZM1407.14 83.144C1406.22 83.144 1405.47 82.856 1404.89 82.28C1404.33 81.704 1404.05 80.942 1404.05 79.994V73.406C1404.05 72.458 1404.33 71.696 1404.89 71.12C1405.47 70.544 1406.22 70.256 1407.14 70.256C1408.08 70.256 1408.83 70.544 1409.41 71.12C1409.99 71.696 1410.27 72.458 1410.27 73.406V79.994C1410.27 80.93 1409.99 81.692 1409.41 82.28C1408.83 82.856 1408.08 83.144 1407.14 83.144ZM1407.14 82.028C1407.69 82.028 1408.14 81.848 1408.47 81.488C1408.82 81.116 1409 80.642 1409 80.066V73.352C1409 72.764 1408.82 72.29 1408.47 71.93C1408.14 71.558 1407.69 71.372 1407.14 71.372C1406.6 71.372 1406.16 71.558 1405.83 71.93C1405.49 72.29 1405.32 72.764 1405.32 73.352V80.066C1405.32 80.642 1405.49 81.116 1405.83 81.488C1406.16 81.848 1406.6 82.028 1407.14 82.028ZM1417.6 83C1417.49 83 1417.42 82.952 1417.39 82.856L1415.55 77.294C1415.54 77.258 1415.51 77.24 1415.48 77.24H1413.91C1413.86 77.24 1413.84 77.264 1413.84 77.312V82.82C1413.84 82.94 1413.78 83 1413.66 83H1412.74C1412.62 83 1412.56 82.94 1412.56 82.82V70.58C1412.56 70.46 1412.62 70.4 1412.74 70.4H1415.71C1416.59 70.4 1417.3 70.724 1417.84 71.372C1418.38 72.008 1418.65 72.842 1418.65 73.874C1418.65 74.654 1418.48 75.326 1418.14 75.89C1417.81 76.454 1417.35 76.85 1416.77 77.078C1416.73 77.09 1416.71 77.12 1416.72 77.168L1418.68 82.802L1418.7 82.874C1418.7 82.958 1418.65 83 1418.54 83H1417.6ZM1413.91 71.516C1413.86 71.516 1413.84 71.54 1413.84 71.588V76.142C1413.84 76.19 1413.86 76.214 1413.91 76.214H1415.53C1416.08 76.214 1416.53 76.004 1416.86 75.584C1417.2 75.152 1417.37 74.582 1417.37 73.874C1417.37 73.166 1417.2 72.596 1416.86 72.164C1416.53 71.732 1416.08 71.516 1415.53 71.516H1413.91ZM1420.72 83C1420.6 83 1420.54 82.94 1420.54 82.82V70.58C1420.54 70.46 1420.6 70.4 1420.72 70.4H1421.64C1421.76 70.4 1421.82 70.46 1421.82 70.58V76.412C1421.82 76.448 1421.83 76.472 1421.86 76.484C1421.88 76.496 1421.9 76.484 1421.91 76.448L1425.38 70.526C1425.44 70.442 1425.52 70.4 1425.6 70.4H1426.61C1426.68 70.4 1426.73 70.424 1426.75 70.472C1426.78 70.508 1426.77 70.556 1426.73 70.616L1423.93 75.494C1423.9 75.542 1423.9 75.578 1423.91 75.602L1427 82.784L1427.02 82.856C1427.02 82.952 1426.97 83 1426.86 83H1425.83C1425.74 83 1425.67 82.952 1425.64 82.856L1423.04 76.736C1423.03 76.688 1423 76.688 1422.95 76.736L1421.84 78.464C1421.83 78.476 1421.82 78.506 1421.82 78.554V82.82C1421.82 82.94 1421.76 83 1421.64 83H1420.72ZM1430.97 83.144C1430.08 83.144 1429.36 82.85 1428.81 82.262C1428.26 81.674 1427.98 80.906 1427.98 79.958V79.544C1427.98 79.424 1428.04 79.364 1428.16 79.364H1429.04C1429.16 79.364 1429.22 79.424 1429.22 79.544V79.904C1429.22 80.54 1429.39 81.056 1429.71 81.452C1430.03 81.836 1430.45 82.028 1430.97 82.028C1431.47 82.028 1431.89 81.842 1432.23 81.47C1432.57 81.098 1432.73 80.606 1432.73 79.994C1432.73 79.586 1432.65 79.238 1432.48 78.95C1432.33 78.65 1432.12 78.392 1431.85 78.176C1431.6 77.948 1431.17 77.606 1430.57 77.15C1429.97 76.706 1429.5 76.328 1429.15 76.016C1428.8 75.692 1428.52 75.308 1428.29 74.864C1428.07 74.42 1427.96 73.898 1427.96 73.298C1427.96 72.362 1428.23 71.624 1428.77 71.084C1429.31 70.532 1430.02 70.256 1430.88 70.256C1431.79 70.256 1432.52 70.556 1433.06 71.156C1433.61 71.744 1433.89 72.53 1433.89 73.514V73.964C1433.89 74.084 1433.83 74.144 1433.71 74.144H1432.81C1432.69 74.144 1432.63 74.084 1432.63 73.964V73.496C1432.63 72.86 1432.46 72.35 1432.14 71.966C1431.83 71.57 1431.41 71.372 1430.88 71.372C1430.4 71.372 1430 71.546 1429.69 71.894C1429.38 72.23 1429.22 72.71 1429.22 73.334C1429.22 73.706 1429.29 74.036 1429.42 74.324C1429.57 74.6 1429.78 74.864 1430.05 75.116C1430.33 75.368 1430.74 75.698 1431.28 76.106C1432 76.634 1432.53 77.066 1432.88 77.402C1433.24 77.726 1433.51 78.086 1433.71 78.482C1433.9 78.866 1433.99 79.334 1433.99 79.886C1433.99 80.87 1433.71 81.662 1433.15 82.262C1432.58 82.85 1431.86 83.144 1430.97 83.144Z" fill="#FBFBFB"/>
<path d="M1500.05 83.144C1499.13 83.144 1498.39 82.874 1497.84 82.334C1497.28 81.782 1497.01 81.05 1497.01 80.138V73.262C1497.01 72.35 1497.28 71.624 1497.84 71.084C1498.39 70.532 1499.13 70.256 1500.05 70.256C1500.97 70.256 1501.71 70.532 1502.26 71.084C1502.83 71.636 1503.11 72.368 1503.11 73.28V74.054C1503.11 74.174 1503.05 74.234 1502.93 74.234H1502.01C1501.89 74.234 1501.83 74.174 1501.83 74.054V73.244C1501.83 72.68 1501.67 72.23 1501.35 71.894C1501.02 71.546 1500.59 71.372 1500.05 71.372C1499.52 71.372 1499.09 71.546 1498.75 71.894C1498.43 72.242 1498.27 72.692 1498.27 73.244V80.156C1498.27 80.708 1498.43 81.158 1498.75 81.506C1499.09 81.854 1499.52 82.028 1500.05 82.028C1500.59 82.028 1501.02 81.86 1501.35 81.524C1501.67 81.176 1501.83 80.72 1501.83 80.156V77.852C1501.83 77.804 1501.81 77.78 1501.76 77.78H1500.21C1500.09 77.78 1500.03 77.72 1500.03 77.6V76.844C1500.03 76.724 1500.09 76.664 1500.21 76.664H1502.93C1503.05 76.664 1503.11 76.724 1503.11 76.844V80.138C1503.11 81.05 1502.83 81.782 1502.26 82.334C1501.71 82.874 1500.97 83.144 1500.05 83.144ZM1511.12 71.336C1511.12 71.456 1511.06 71.516 1510.94 71.516H1506.77C1506.72 71.516 1506.7 71.54 1506.7 71.588V76.052C1506.7 76.1 1506.72 76.124 1506.77 76.124H1509.4C1509.52 76.124 1509.58 76.184 1509.58 76.304V77.078C1509.58 77.198 1509.52 77.258 1509.4 77.258H1506.77C1506.72 77.258 1506.7 77.282 1506.7 77.33V81.812C1506.7 81.86 1506.72 81.884 1506.77 81.884H1510.94C1511.06 81.884 1511.12 81.944 1511.12 82.064V82.82C1511.12 82.94 1511.06 83 1510.94 83H1505.6C1505.48 83 1505.42 82.94 1505.42 82.82V70.58C1505.42 70.46 1505.48 70.4 1505.6 70.4H1510.94C1511.06 70.4 1511.12 70.46 1511.12 70.58V71.336ZM1518.66 70.4C1518.78 70.4 1518.84 70.46 1518.84 70.58V71.336C1518.84 71.456 1518.78 71.516 1518.66 71.516H1516.28C1516.24 71.516 1516.21 71.54 1516.21 71.588V82.82C1516.21 82.94 1516.15 83 1516.03 83H1515.11C1514.99 83 1514.93 82.94 1514.93 82.82V71.588C1514.93 71.54 1514.91 71.516 1514.86 71.516H1512.63C1512.51 71.516 1512.45 71.456 1512.45 71.336V70.58C1512.45 70.46 1512.51 70.4 1512.63 70.4H1518.66ZM1524.53 83C1524.41 83 1524.35 82.94 1524.35 82.82V70.58C1524.35 70.46 1524.41 70.4 1524.53 70.4H1525.45C1525.57 70.4 1525.63 70.46 1525.63 70.58V82.82C1525.63 82.94 1525.57 83 1525.45 83H1524.53ZM1533.26 70.58C1533.26 70.46 1533.32 70.4 1533.44 70.4H1534.34C1534.46 70.4 1534.52 70.46 1534.52 70.58V82.82C1534.52 82.94 1534.46 83 1534.34 83H1533.27C1533.18 83 1533.11 82.952 1533.08 82.856L1529.57 73.55C1529.55 73.514 1529.54 73.502 1529.51 73.514C1529.49 73.514 1529.48 73.532 1529.48 73.568L1529.49 82.82C1529.49 82.94 1529.43 83 1529.31 83H1528.4C1528.28 83 1528.22 82.94 1528.22 82.82V70.58C1528.22 70.46 1528.28 70.4 1528.4 70.4H1529.44C1529.54 70.4 1529.6 70.448 1529.64 70.544L1533.17 79.868C1533.18 79.904 1533.2 79.922 1533.22 79.922C1533.24 79.91 1533.26 79.886 1533.26 79.85V70.58ZM1546.22 70.4C1546.34 70.4 1546.4 70.46 1546.4 70.58V71.336C1546.4 71.456 1546.34 71.516 1546.22 71.516H1543.85C1543.8 71.516 1543.77 71.54 1543.77 71.588V82.82C1543.77 82.94 1543.71 83 1543.59 83H1542.68C1542.56 83 1542.5 82.94 1542.5 82.82V71.588C1542.5 71.54 1542.47 71.516 1542.42 71.516H1540.19C1540.07 71.516 1540.01 71.456 1540.01 71.336V70.58C1540.01 70.46 1540.07 70.4 1540.19 70.4H1546.22ZM1550.54 83.144C1549.61 83.144 1548.86 82.856 1548.29 82.28C1547.72 81.704 1547.44 80.942 1547.44 79.994V73.406C1547.44 72.458 1547.72 71.696 1548.29 71.12C1548.86 70.544 1549.61 70.256 1550.54 70.256C1551.47 70.256 1552.23 70.544 1552.8 71.12C1553.38 71.696 1553.67 72.458 1553.67 73.406V79.994C1553.67 80.93 1553.38 81.692 1552.8 82.28C1552.23 82.856 1551.47 83.144 1550.54 83.144ZM1550.54 82.028C1551.09 82.028 1551.53 81.848 1551.87 81.488C1552.22 81.116 1552.39 80.642 1552.39 80.066V73.352C1552.39 72.764 1552.22 72.29 1551.87 71.93C1551.53 71.558 1551.09 71.372 1550.54 71.372C1550 71.372 1549.56 71.558 1549.22 71.93C1548.89 72.29 1548.72 72.764 1548.72 73.352V80.066C1548.72 80.642 1548.89 81.116 1549.22 81.488C1549.56 81.848 1550 82.028 1550.54 82.028ZM1558.92 83.144C1558 83.144 1557.26 82.826 1556.69 82.19C1556.13 81.554 1555.85 80.714 1555.85 79.67V70.58C1555.85 70.46 1555.91 70.4 1556.03 70.4H1556.94C1557.06 70.4 1557.12 70.46 1557.12 70.58V79.814C1557.12 80.474 1557.29 81.008 1557.61 81.416C1557.95 81.824 1558.38 82.028 1558.92 82.028C1559.48 82.028 1559.92 81.824 1560.26 81.416C1560.59 81.008 1560.76 80.474 1560.76 79.814V70.58C1560.76 70.46 1560.82 70.4 1560.94 70.4H1561.86C1561.98 70.4 1562.04 70.46 1562.04 70.58V79.67C1562.04 80.714 1561.75 81.554 1561.17 82.19C1560.61 82.826 1559.86 83.144 1558.92 83.144ZM1567.15 83.144C1566.22 83.144 1565.48 82.862 1564.91 82.298C1564.36 81.734 1564.09 80.978 1564.09 80.03V73.352C1564.09 72.416 1564.36 71.666 1564.91 71.102C1565.48 70.538 1566.22 70.256 1567.15 70.256C1568.08 70.256 1568.83 70.538 1569.38 71.102C1569.94 71.654 1570.22 72.404 1570.22 73.352V73.658C1570.22 73.778 1570.16 73.838 1570.04 73.838L1569.11 73.892C1568.99 73.892 1568.93 73.832 1568.93 73.712V73.262C1568.93 72.698 1568.77 72.242 1568.44 71.894C1568.12 71.546 1567.69 71.372 1567.15 71.372C1566.62 71.372 1566.19 71.546 1565.85 71.894C1565.53 72.242 1565.36 72.698 1565.36 73.262V80.138C1565.36 80.702 1565.53 81.158 1565.85 81.506C1566.19 81.854 1566.62 82.028 1567.15 82.028C1567.69 82.028 1568.12 81.854 1568.44 81.506C1568.77 81.158 1568.93 80.702 1568.93 80.138V79.688C1568.93 79.568 1568.99 79.508 1569.11 79.508L1570.04 79.562C1570.16 79.562 1570.22 79.622 1570.22 79.742V80.03C1570.22 80.978 1569.94 81.734 1569.38 82.298C1568.81 82.862 1568.07 83.144 1567.15 83.144ZM1577.05 70.58C1577.05 70.46 1577.11 70.4 1577.23 70.4H1578.15C1578.27 70.4 1578.33 70.46 1578.33 70.58V82.82C1578.33 82.94 1578.27 83 1578.15 83H1577.23C1577.11 83 1577.05 82.94 1577.05 82.82V77.33C1577.05 77.282 1577.03 77.258 1576.98 77.258H1573.77C1573.73 77.258 1573.7 77.282 1573.7 77.33V82.82C1573.7 82.94 1573.64 83 1573.52 83H1572.6C1572.48 83 1572.42 82.94 1572.42 82.82V70.58C1572.42 70.46 1572.48 70.4 1572.6 70.4H1573.52C1573.64 70.4 1573.7 70.46 1573.7 70.58V76.052C1573.7 76.1 1573.73 76.124 1573.77 76.124H1576.98C1577.03 76.124 1577.05 76.1 1577.05 76.052V70.58Z" fill="#FBFBFB"/>
<path d="M516.384 567C515.952 567 515.688 566.784 515.592 566.352L506.088 517.392V517.248C506.088 516.816 506.304 516.6 506.736 516.6H510.552C511.032 516.6 511.296 516.816 511.344 517.248L518.112 555.12C518.16 555.216 518.208 555.264 518.256 555.264C518.304 555.264 518.352 555.216 518.4 555.12L524.232 517.248C524.328 516.816 524.568 516.6 524.952 516.6H528.264C528.696 516.6 528.936 516.816 528.984 517.248L535.104 555.12C535.152 555.216 535.2 555.264 535.248 555.264C535.296 555.264 535.344 555.216 535.392 555.12L541.584 517.248C541.68 516.816 541.92 516.6 542.304 516.6H546.12C546.36 516.6 546.528 516.672 546.624 516.816C546.768 516.96 546.816 517.152 546.768 517.392L537.84 566.352C537.792 566.784 537.528 567 537.048 567H533.52C533.136 567 532.896 566.784 532.8 566.352L526.752 528.336C526.704 528.24 526.632 528.192 526.536 528.192C526.488 528.192 526.464 528.24 526.464 528.336L520.56 566.352C520.512 566.784 520.272 567 519.84 567H516.384ZM572.253 550.008C572.253 550.488 572.013 550.728 571.533 550.728H555.117C554.925 550.728 554.829 550.824 554.829 551.016V556.272C554.829 558.288 555.381 559.944 556.485 561.24C557.637 562.488 559.125 563.112 560.949 563.112C562.485 563.112 563.781 562.656 564.837 561.744C565.941 560.784 566.661 559.56 566.997 558.072C567.141 557.64 567.405 557.424 567.789 557.424L571.389 557.568C571.581 557.568 571.749 557.64 571.893 557.784C572.037 557.928 572.085 558.12 572.037 558.36C571.653 561.192 570.477 563.448 568.509 565.128C566.589 566.76 564.069 567.576 560.949 567.576C557.541 567.576 554.805 566.568 552.741 564.552C550.725 562.536 549.717 559.872 549.717 556.56V541.008C549.717 537.744 550.725 535.104 552.741 533.088C554.805 531.024 557.541 529.992 560.949 529.992C564.405 529.992 567.141 531.024 569.157 533.088C571.221 535.104 572.253 537.744 572.253 541.008V550.008ZM560.949 534.456C559.125 534.456 557.637 535.104 556.485 536.4C555.381 537.648 554.829 539.304 554.829 541.368V546.192C554.829 546.384 554.925 546.48 555.117 546.48H566.925C567.117 546.48 567.213 546.384 567.213 546.192V541.368C567.213 539.304 566.637 537.648 565.485 536.4C564.333 535.104 562.821 534.456 560.949 534.456ZM592.214 529.992C595.238 529.992 597.662 531 599.486 533.016C601.358 534.984 602.294 537.648 602.294 541.008V556.56C602.294 559.824 601.382 562.488 599.558 564.552C597.734 566.568 595.286 567.576 592.214 567.576C590.918 567.576 589.67 567.336 588.47 566.856C587.27 566.328 586.214 565.56 585.302 564.552C585.206 564.456 585.11 564.432 585.014 564.48C584.965 564.528 584.941 564.6 584.941 564.696V566.28C584.941 566.76 584.702 567 584.222 567H580.55C580.07 567 579.83 566.76 579.83 566.28V517.32C579.83 516.84 580.07 516.6 580.55 516.6H584.222C584.702 516.6 584.941 516.84 584.941 517.32V532.872C584.941 532.968 584.99 533.04 585.086 533.088C585.182 533.136 585.278 533.088 585.374 532.944C586.238 531.984 587.27 531.264 588.47 530.784C589.67 530.256 590.918 529.992 592.214 529.992ZM597.182 541.368C597.182 539.304 596.606 537.648 595.454 536.4C594.302 535.104 592.79 534.456 590.918 534.456C589.142 534.456 587.702 535.104 586.598 536.4C585.493 537.648 584.941 539.304 584.941 541.368V556.272C584.941 558.288 585.493 559.944 586.598 561.24C587.702 562.488 589.142 563.112 590.918 563.112C592.79 563.112 594.302 562.488 595.454 561.24C596.606 559.944 597.182 558.288 597.182 556.272V541.368ZM626.201 567C625.721 567 625.481 566.76 625.481 566.28V517.32C625.481 516.84 625.721 516.6 626.201 516.6H637.289C640.985 516.6 643.937 517.824 646.145 520.272C648.353 522.672 649.457 525.912 649.457 529.992V553.608C649.457 557.688 648.353 560.952 646.145 563.4C643.937 565.8 640.985 567 637.289 567H626.201ZM630.593 562.248C630.593 562.44 630.689 562.536 630.881 562.536L637.217 562.464C639.329 562.464 641.009 561.648 642.257 560.016C643.553 558.384 644.225 556.176 644.273 553.392V530.208C644.273 527.376 643.649 525.144 642.401 523.512C641.153 521.88 639.425 521.064 637.217 521.064H630.881C630.689 521.064 630.593 521.16 630.593 521.352V562.248ZM679.902 550.008C679.902 550.488 679.662 550.728 679.182 550.728H662.766C662.574 550.728 662.478 550.824 662.478 551.016V556.272C662.478 558.288 663.03 559.944 664.134 561.24C665.286 562.488 666.774 563.112 668.598 563.112C670.134 563.112 671.43 562.656 672.486 561.744C673.59 560.784 674.31 559.56 674.646 558.072C674.79 557.64 675.054 557.424 675.438 557.424L679.038 557.568C679.23 557.568 679.398 557.64 679.542 557.784C679.686 557.928 679.734 558.12 679.686 558.36C679.302 561.192 678.126 563.448 676.158 565.128C674.238 566.76 671.718 567.576 668.598 567.576C665.19 567.576 662.454 566.568 660.39 564.552C658.374 562.536 657.366 559.872 657.366 556.56V541.008C657.366 537.744 658.374 535.104 660.39 533.088C662.454 531.024 665.19 529.992 668.598 529.992C672.054 529.992 674.79 531.024 676.806 533.088C678.87 535.104 679.902 537.744 679.902 541.008V550.008ZM668.598 534.456C666.774 534.456 665.286 535.104 664.134 536.4C663.03 537.648 662.478 539.304 662.478 541.368V546.192C662.478 546.384 662.574 546.48 662.766 546.48H674.574C674.766 546.48 674.862 546.384 674.862 546.192V541.368C674.862 539.304 674.286 537.648 673.134 536.4C671.982 535.104 670.47 534.456 668.598 534.456ZM694.184 567C693.752 567 693.488 566.784 693.392 566.352L684.464 531.36L684.392 531.072C684.392 530.736 684.608 530.568 685.04 530.568H689.216C689.648 530.568 689.912 530.784 690.008 531.216L696.2 558.504C696.248 558.648 696.296 558.72 696.344 558.72C696.392 558.72 696.44 558.648 696.488 558.504L702.608 531.216C702.704 530.784 702.968 530.568 703.4 530.568L707.576 530.64C707.816 530.64 707.984 530.712 708.08 530.856C708.224 531 708.248 531.192 708.152 531.432L699.296 566.352C699.248 566.784 698.984 567 698.504 567H694.184ZM735.589 550.008C735.589 550.488 735.349 550.728 734.869 550.728H718.453C718.261 550.728 718.165 550.824 718.165 551.016V556.272C718.165 558.288 718.717 559.944 719.821 561.24C720.973 562.488 722.461 563.112 724.285 563.112C725.821 563.112 727.117 562.656 728.173 561.744C729.277 560.784 729.997 559.56 730.333 558.072C730.477 557.64 730.741 557.424 731.125 557.424L734.725 557.568C734.917 557.568 735.085 557.64 735.229 557.784C735.373 557.928 735.421 558.12 735.373 558.36C734.989 561.192 733.813 563.448 731.845 565.128C729.925 566.76 727.405 567.576 724.285 567.576C720.877 567.576 718.141 566.568 716.077 564.552C714.061 562.536 713.053 559.872 713.053 556.56V541.008C713.053 537.744 714.061 535.104 716.077 533.088C718.141 531.024 720.877 529.992 724.285 529.992C727.741 529.992 730.477 531.024 732.493 533.088C734.557 535.104 735.589 537.744 735.589 541.008V550.008ZM724.285 534.456C722.461 534.456 720.973 535.104 719.821 536.4C718.717 537.648 718.165 539.304 718.165 541.368V546.192C718.165 546.384 718.261 546.48 718.453 546.48H730.261C730.453 546.48 730.549 546.384 730.549 546.192V541.368C730.549 539.304 729.973 537.648 728.821 536.4C727.669 535.104 726.157 534.456 724.285 534.456ZM743.453 567C742.973 567 742.733 566.76 742.733 566.28V517.32C742.733 516.84 742.973 516.6 743.453 516.6H747.125C747.605 516.6 747.845 516.84 747.845 517.32V566.28C747.845 566.76 747.605 567 747.125 567H743.453ZM766.685 567.576C763.229 567.576 760.469 566.568 758.405 564.552C756.389 562.536 755.381 559.872 755.381 556.56V541.08C755.381 537.816 756.413 535.152 758.477 533.088C760.541 531.024 763.277 529.992 766.685 529.992C770.141 529.992 772.901 531.024 774.965 533.088C777.029 535.152 778.061 537.816 778.061 541.08V556.56C778.061 559.872 777.029 562.536 774.965 564.552C772.901 566.568 770.141 567.576 766.685 567.576ZM766.685 563.04C768.509 563.04 769.997 562.416 771.149 561.168C772.349 559.92 772.949 558.264 772.949 556.2V541.368C772.949 539.304 772.349 537.648 771.149 536.4C769.997 535.104 768.509 534.456 766.685 534.456C764.861 534.456 763.373 535.104 762.221 536.4C761.069 537.648 760.493 539.304 760.493 541.368V556.2C760.493 558.264 761.069 559.92 762.221 561.168C763.373 562.416 764.861 563.04 766.685 563.04ZM798.872 529.992C801.896 529.992 804.32 531.024 806.144 533.088C807.968 535.104 808.88 537.744 808.88 541.008V556.56C808.88 559.92 807.968 562.608 806.144 564.624C804.32 566.592 801.896 567.576 798.872 567.576C797.528 567.576 796.256 567.336 795.056 566.856C793.856 566.328 792.8 565.536 791.888 564.48C791.792 564.384 791.696 564.36 791.6 564.408C791.552 564.456 791.528 564.528 791.528 564.624V580.248C791.528 580.728 791.288 580.968 790.808 580.968H787.136C786.656 580.968 786.416 580.728 786.416 580.248V531.288C786.416 530.808 786.656 530.568 787.136 530.568H790.808C791.288 530.568 791.528 530.808 791.528 531.288V532.944C791.528 533.04 791.576 533.112 791.672 533.16C791.768 533.16 791.864 533.112 791.96 533.016C792.824 532.008 793.856 531.264 795.056 530.784C796.304 530.256 797.576 529.992 798.872 529.992ZM803.84 541.368C803.84 539.304 803.24 537.648 802.04 536.4C800.888 535.104 799.4 534.456 797.576 534.456C795.8 534.456 794.336 535.104 793.184 536.4C792.08 537.648 791.528 539.304 791.528 541.368V556.2C791.528 558.264 792.08 559.944 793.184 561.24C794.336 562.488 795.8 563.112 797.576 563.112C799.4 563.112 800.888 562.488 802.04 561.24C803.24 559.944 803.84 558.264 803.84 556.2V541.368ZM838.597 550.008C838.597 550.488 838.357 550.728 837.877 550.728H821.461C821.269 550.728 821.173 550.824 821.173 551.016V556.272C821.173 558.288 821.725 559.944 822.829 561.24C823.981 562.488 825.469 563.112 827.293 563.112C828.829 563.112 830.125 562.656 831.181 561.744C832.285 560.784 833.005 559.56 833.341 558.072C833.485 557.64 833.749 557.424 834.133 557.424L837.733 557.568C837.925 557.568 838.093 557.64 838.237 557.784C838.381 557.928 838.429 558.12 838.381 558.36C837.997 561.192 836.821 563.448 834.853 565.128C832.933 566.76 830.413 567.576 827.293 567.576C823.885 567.576 821.149 566.568 819.085 564.552C817.069 562.536 816.061 559.872 816.061 556.56V541.008C816.061 537.744 817.069 535.104 819.085 533.088C821.149 531.024 823.885 529.992 827.293 529.992C830.749 529.992 833.485 531.024 835.501 533.088C837.565 535.104 838.597 537.744 838.597 541.008V550.008ZM827.293 534.456C825.469 534.456 823.981 535.104 822.829 536.4C821.725 537.648 821.173 539.304 821.173 541.368V546.192C821.173 546.384 821.269 546.48 821.461 546.48H833.269C833.461 546.48 833.557 546.384 833.557 546.192V541.368C833.557 539.304 832.981 537.648 831.829 536.4C830.677 535.104 829.165 534.456 827.293 534.456ZM858.485 530.208C859.685 530.208 860.717 530.472 861.581 531C861.917 531.192 862.037 531.504 861.941 531.936L861.077 535.68C861.029 536.112 860.741 536.256 860.213 536.112C859.637 535.824 858.917 535.68 858.053 535.68C857.669 535.68 857.381 535.704 857.189 535.752C855.461 535.848 854.045 536.76 852.941 538.488C851.837 540.168 851.285 542.232 851.285 544.68V566.28C851.285 566.76 851.045 567 850.565 567H846.893C846.413 567 846.173 566.76 846.173 566.28V531.288C846.173 530.808 846.413 530.568 846.893 530.568H850.565C851.045 530.568 851.285 530.808 851.285 531.288V535.608C851.285 535.752 851.309 535.824 851.357 535.824C851.453 535.824 851.549 535.776 851.645 535.68C853.037 532.032 855.317 530.208 858.485 530.208Z" fill="url(#paint1_linear)"/>
<path d="M371.752 654C371.32 654 371.056 653.784 370.96 653.352L360.52 604.392V604.248C360.52 603.816 360.736 603.6 361.168 603.6H365.2C365.68 603.6 365.944 603.816 365.992 604.248L373.768 644.496C373.816 644.592 373.864 644.64 373.912 644.64C373.96 644.64 374.008 644.592 374.056 644.496L381.76 604.248C381.856 603.816 382.12 603.6 382.552 603.6H386.44C386.968 603.6 387.184 603.864 387.088 604.392L376.648 653.352C376.6 653.784 376.336 654 375.856 654H371.752ZM397.129 610.944C395.929 610.944 394.945 610.56 394.177 609.792C393.457 609.024 393.097 608.064 393.097 606.912C393.097 605.712 393.457 604.752 394.177 604.032C394.945 603.264 395.929 602.88 397.129 602.88C398.281 602.88 399.217 603.264 399.937 604.032C400.705 604.752 401.089 605.712 401.089 606.912C401.089 608.064 400.705 609.024 399.937 609.792C399.217 610.56 398.281 610.944 397.129 610.944ZM395.329 654C394.849 654 394.609 653.76 394.609 653.28V618.288C394.609 617.808 394.849 617.568 395.329 617.568H399.001C399.481 617.568 399.721 617.808 399.721 618.288V653.28C399.721 653.76 399.481 654 399.001 654H395.329ZM418.513 654.36C415.201 654.36 412.537 653.52 410.521 651.84C408.553 650.112 407.569 647.832 407.569 645V644.496C407.569 644.016 407.809 643.776 408.289 643.776H411.745C412.225 643.776 412.465 644.016 412.465 644.496V644.928C412.465 646.464 413.017 647.76 414.121 648.816C415.273 649.872 416.761 650.4 418.585 650.4C420.313 650.4 421.705 649.872 422.761 648.816C423.817 647.76 424.345 646.416 424.345 644.784C424.345 643.536 424.009 642.504 423.337 641.688C422.665 640.824 421.873 640.152 420.961 639.672C420.097 639.192 418.777 638.568 417.001 637.8C415.129 637.032 413.569 636.288 412.321 635.568C411.121 634.8 410.065 633.744 409.153 632.4C408.289 631.008 407.857 629.256 407.857 627.144C407.857 624.072 408.793 621.648 410.665 619.872C412.585 618.096 415.153 617.208 418.369 617.208C421.633 617.208 424.225 618.12 426.145 619.944C428.065 621.768 429.025 624.192 429.025 627.216V627.432C429.025 627.912 428.785 628.152 428.305 628.152H424.993C424.513 628.152 424.273 627.912 424.273 627.432V627C424.273 625.368 423.721 624.024 422.617 622.968C421.561 621.912 420.169 621.384 418.441 621.384C416.713 621.384 415.321 621.936 414.265 623.04C413.257 624.096 412.753 625.416 412.753 627C412.753 628.152 413.065 629.136 413.689 629.952C414.313 630.72 415.081 631.368 415.993 631.896C416.905 632.376 418.177 632.976 419.809 633.696C421.777 634.56 423.385 635.376 424.633 636.144C425.929 636.912 427.057 637.992 428.017 639.384C428.977 640.776 429.457 642.504 429.457 644.568C429.457 647.544 428.473 649.92 426.505 651.696C424.537 653.472 421.873 654.36 418.513 654.36ZM452.571 618.288C452.571 617.808 452.811 617.568 453.291 617.568H456.963C457.443 617.568 457.683 617.808 457.683 618.288V653.28C457.683 653.76 457.443 654 456.963 654H453.291C452.811 654 452.571 653.76 452.571 653.28V650.832C452.571 650.688 452.523 650.616 452.427 650.616C452.379 650.616 452.307 650.664 452.211 650.76C450.723 653.256 448.323 654.504 445.011 654.504C442.131 654.504 439.827 653.64 438.099 651.912C436.419 650.136 435.579 647.472 435.579 643.92V618.288C435.579 617.808 435.819 617.568 436.299 617.568H439.971C440.451 617.568 440.691 617.808 440.691 618.288V642.768C440.691 645.168 441.171 646.992 442.131 648.24C443.139 649.44 444.579 650.04 446.451 650.04C448.371 650.04 449.859 649.344 450.915 647.952C452.019 646.56 452.571 644.664 452.571 642.264V618.288ZM477.111 616.992C480.471 616.992 483.159 618.096 485.175 620.304C487.191 622.464 488.199 625.368 488.199 629.016V653.28C488.199 653.76 487.959 654 487.479 654H483.807C483.327 654 483.087 653.76 483.087 653.28V651.12C483.087 651.024 483.039 650.976 482.943 650.976C482.895 650.928 482.823 650.952 482.727 651.048C480.951 653.4 478.287 654.576 474.735 654.576C472.095 654.576 469.791 653.832 467.823 652.344C465.903 650.808 464.943 648.12 464.943 644.28C464.943 640.2 466.119 637.224 468.471 635.352C470.823 633.432 473.919 632.472 477.759 632.472H482.799C482.991 632.472 483.087 632.376 483.087 632.184V629.376C483.087 626.976 482.535 625.056 481.431 623.616C480.327 622.176 478.839 621.456 476.967 621.456C475.527 621.456 474.279 621.936 473.223 622.896C472.215 623.856 471.615 625.08 471.423 626.568C471.423 627.048 471.183 627.288 470.703 627.288L466.671 627.216C466.431 627.216 466.239 627.144 466.095 627C465.999 626.856 465.975 626.688 466.023 626.496C466.263 623.664 467.415 621.384 469.479 619.656C471.543 617.88 474.087 616.992 477.111 616.992ZM475.815 650.112C477.783 650.112 479.487 649.488 480.927 648.24C482.367 646.944 483.087 645.168 483.087 642.912V636.864C483.087 636.672 482.991 636.576 482.799 636.576H477.687C475.383 636.576 473.559 637.2 472.215 638.448C470.871 639.648 470.199 641.448 470.199 643.848C470.199 645.96 470.703 647.544 471.711 648.6C472.767 649.608 474.135 650.112 475.815 650.112ZM496.485 654C496.005 654 495.765 653.76 495.765 653.28V604.32C495.765 603.84 496.005 603.6 496.485 603.6H500.157C500.637 603.6 500.877 603.84 500.877 604.32V653.28C500.877 653.76 500.637 654 500.157 654H496.485ZM525.131 654C524.651 654 524.411 653.76 524.411 653.28V604.32C524.411 603.84 524.651 603.6 525.131 603.6H536.219C539.915 603.6 542.867 604.824 545.075 607.272C547.283 609.672 548.387 612.912 548.387 616.992V640.608C548.387 644.688 547.283 647.952 545.075 650.4C542.867 652.8 539.915 654 536.219 654H525.131ZM529.523 649.248C529.523 649.44 529.619 649.536 529.811 649.536L536.147 649.464C538.259 649.464 539.939 648.648 541.187 647.016C542.483 645.384 543.155 643.176 543.203 640.392V617.208C543.203 614.376 542.579 612.144 541.331 610.512C540.083 608.88 538.355 608.064 536.147 608.064H529.811C529.619 608.064 529.523 608.16 529.523 608.352V649.248ZM578.831 637.008C578.831 637.488 578.591 637.728 578.111 637.728H561.695C561.503 637.728 561.407 637.824 561.407 638.016V643.272C561.407 645.288 561.959 646.944 563.063 648.24C564.215 649.488 565.703 650.112 567.527 650.112C569.063 650.112 570.359 649.656 571.415 648.744C572.519 647.784 573.239 646.56 573.575 645.072C573.719 644.64 573.983 644.424 574.367 644.424L577.967 644.568C578.159 644.568 578.327 644.64 578.471 644.784C578.615 644.928 578.663 645.12 578.615 645.36C578.231 648.192 577.055 650.448 575.087 652.128C573.167 653.76 570.647 654.576 567.527 654.576C564.119 654.576 561.383 653.568 559.319 651.552C557.303 649.536 556.295 646.872 556.295 643.56V628.008C556.295 624.744 557.303 622.104 559.319 620.088C561.383 618.024 564.119 616.992 567.527 616.992C570.983 616.992 573.719 618.024 575.735 620.088C577.799 622.104 578.831 624.744 578.831 628.008V637.008ZM567.527 621.456C565.703 621.456 564.215 622.104 563.063 623.4C561.959 624.648 561.407 626.304 561.407 628.368V633.192C561.407 633.384 561.503 633.48 561.695 633.48H573.503C573.695 633.48 573.791 633.384 573.791 633.192V628.368C573.791 626.304 573.215 624.648 572.063 623.4C570.911 622.104 569.399 621.456 567.527 621.456ZM595.771 654.36C592.459 654.36 589.795 653.52 587.779 651.84C585.811 650.112 584.827 647.832 584.827 645V644.496C584.827 644.016 585.067 643.776 585.547 643.776H589.003C589.483 643.776 589.723 644.016 589.723 644.496V644.928C589.723 646.464 590.275 647.76 591.379 648.816C592.531 649.872 594.019 650.4 595.843 650.4C597.571 650.4 598.963 649.872 600.019 648.816C601.075 647.76 601.603 646.416 601.603 644.784C601.603 643.536 601.267 642.504 600.595 641.688C599.923 640.824 599.131 640.152 598.219 639.672C597.355 639.192 596.035 638.568 594.259 637.8C592.387 637.032 590.827 636.288 589.579 635.568C588.379 634.8 587.323 633.744 586.411 632.4C585.547 631.008 585.115 629.256 585.115 627.144C585.115 624.072 586.051 621.648 587.923 619.872C589.843 618.096 592.411 617.208 595.627 617.208C598.891 617.208 601.483 618.12 603.403 619.944C605.323 621.768 606.283 624.192 606.283 627.216V627.432C606.283 627.912 606.043 628.152 605.563 628.152H602.251C601.771 628.152 601.531 627.912 601.531 627.432V627C601.531 625.368 600.979 624.024 599.875 622.968C598.819 621.912 597.427 621.384 595.699 621.384C593.971 621.384 592.579 621.936 591.523 623.04C590.515 624.096 590.011 625.416 590.011 627C590.011 628.152 590.323 629.136 590.947 629.952C591.571 630.72 592.339 631.368 593.251 631.896C594.163 632.376 595.435 632.976 597.067 633.696C599.035 634.56 600.643 635.376 601.891 636.144C603.187 636.912 604.315 637.992 605.275 639.384C606.235 640.776 606.715 642.504 606.715 644.568C606.715 647.544 605.731 649.92 603.763 651.696C601.795 653.472 599.131 654.36 595.771 654.36ZM616.293 610.944C615.093 610.944 614.109 610.56 613.341 609.792C612.621 609.024 612.261 608.064 612.261 606.912C612.261 605.712 612.621 604.752 613.341 604.032C614.109 603.264 615.093 602.88 616.293 602.88C617.445 602.88 618.381 603.264 619.101 604.032C619.869 604.752 620.253 605.712 620.253 606.912C620.253 608.064 619.869 609.024 619.101 609.792C618.381 610.56 617.445 610.944 616.293 610.944ZM614.493 654C614.013 654 613.773 653.76 613.773 653.28V618.288C613.773 617.808 614.013 617.568 614.493 617.568H618.165C618.645 617.568 618.885 617.808 618.885 618.288V653.28C618.885 653.76 618.645 654 618.165 654H614.493ZM644.733 618.288C644.733 617.808 644.973 617.568 645.453 617.568H649.125C649.605 617.568 649.845 617.808 649.845 618.288V653.28C649.845 658.416 648.645 662.304 646.245 664.944C643.893 667.632 639.933 668.856 634.365 668.616C633.885 668.568 633.645 668.304 633.645 667.824V664.728C633.645 664.248 633.885 664.008 634.365 664.008C638.205 664.104 640.893 663.216 642.429 661.344C643.965 659.52 644.733 656.688 644.733 652.848V650.688C644.733 650.592 644.685 650.52 644.589 650.472C644.541 650.424 644.469 650.448 644.373 650.544C643.557 651.744 642.501 652.656 641.205 653.28C639.957 653.904 638.613 654.216 637.173 654.216C634.149 654.216 631.749 653.208 629.973 651.192C628.245 649.176 627.381 646.512 627.381 643.2V628.008C627.381 624.648 628.245 621.984 629.973 620.016C631.749 618 634.149 616.992 637.173 616.992C638.613 616.992 639.957 617.304 641.205 617.928C642.501 618.504 643.557 619.392 644.373 620.592C644.469 620.736 644.541 620.808 644.589 620.808C644.685 620.76 644.733 620.664 644.733 620.52V618.288ZM638.685 649.752C640.461 649.752 641.901 649.128 643.005 647.88C644.157 646.584 644.733 644.928 644.733 642.912V628.368C644.733 626.304 644.157 624.648 643.005 623.4C641.901 622.104 640.461 621.456 638.685 621.456C636.861 621.456 635.373 622.104 634.221 623.4C633.069 624.648 632.493 626.304 632.493 628.368V642.912C632.493 644.928 633.069 646.584 634.221 647.88C635.373 649.128 636.861 649.752 638.685 649.752ZM670.875 617.064C673.803 617.064 676.059 618.072 677.643 620.088C679.275 622.104 680.091 624.912 680.091 628.512V653.28C680.091 653.76 679.851 654 679.371 654H675.699C675.219 654 674.979 653.76 674.979 653.28V628.944C674.979 626.592 674.451 624.768 673.395 623.472C672.387 622.176 670.971 621.528 669.147 621.528C667.227 621.528 665.715 622.224 664.611 623.616C663.555 625.008 663.027 626.904 663.027 629.304V653.28C663.027 653.76 662.787 654 662.307 654H658.635C658.155 654 657.915 653.76 657.915 653.28V618.288C657.915 617.808 658.155 617.568 658.635 617.568H662.307C662.787 617.568 663.027 617.808 663.027 618.288V620.592C663.027 620.688 663.075 620.76 663.171 620.808C663.267 620.856 663.339 620.808 663.387 620.664C664.251 619.464 665.331 618.576 666.627 618C667.971 617.376 669.387 617.064 670.875 617.064Z" fill="url(#paint2_linear)"/>
<circle cx="864" cy="774.58" r="70" transform="rotate(-119.907 864 774.58)" fill="url(#paint3_linear)"/>
<path d="M845.096 783.58C844.988 783.58 844.922 783.526 844.898 783.418L842.522 771.178V771.142C842.522 771.034 842.576 770.98 842.684 770.98H843.638C843.758 770.98 843.824 771.034 843.836 771.142L845.528 780.61C845.54 780.634 845.552 780.646 845.564 780.646C845.576 780.646 845.588 780.634 845.6 780.61L847.058 771.142C847.082 771.034 847.142 770.98 847.238 770.98H848.066C848.174 770.98 848.234 771.034 848.246 771.142L849.776 780.61C849.788 780.634 849.8 780.646 849.812 780.646C849.824 780.646 849.836 780.634 849.848 780.61L851.396 771.142C851.42 771.034 851.48 770.98 851.576 770.98H852.53C852.59 770.98 852.632 770.998 852.656 771.034C852.692 771.07 852.704 771.118 852.692 771.178L850.46 783.418C850.448 783.526 850.382 783.58 850.262 783.58H849.38C849.284 783.58 849.224 783.526 849.2 783.418L847.688 773.914C847.676 773.89 847.658 773.878 847.634 773.878C847.622 773.878 847.616 773.89 847.616 773.914L846.14 783.418C846.128 783.526 846.068 783.58 845.96 783.58H845.096ZM857.143 783.724C856.219 783.724 855.469 783.436 854.893 782.86C854.329 782.284 854.047 781.522 854.047 780.574V773.986C854.047 773.038 854.329 772.276 854.893 771.7C855.469 771.124 856.219 770.836 857.143 770.836C858.079 770.836 858.835 771.124 859.411 771.7C859.987 772.276 860.275 773.038 860.275 773.986V780.574C860.275 781.51 859.987 782.272 859.411 782.86C858.835 783.436 858.079 783.724 857.143 783.724ZM857.143 782.608C857.695 782.608 858.139 782.428 858.475 782.068C858.823 781.696 858.997 781.222 858.997 780.646V773.932C858.997 773.344 858.823 772.87 858.475 772.51C858.139 772.138 857.695 771.952 857.143 771.952C856.603 771.952 856.165 772.138 855.829 772.51C855.493 772.87 855.325 773.344 855.325 773.932V780.646C855.325 781.222 855.493 781.696 855.829 782.068C856.165 782.428 856.603 782.608 857.143 782.608ZM867.602 783.58C867.494 783.58 867.422 783.532 867.386 783.436L865.55 777.874C865.538 777.838 865.514 777.82 865.478 777.82H863.912C863.864 777.82 863.84 777.844 863.84 777.892V783.4C863.84 783.52 863.78 783.58 863.66 783.58H862.742C862.622 783.58 862.562 783.52 862.562 783.4V771.16C862.562 771.04 862.622 770.98 862.742 770.98H865.712C866.588 770.98 867.296 771.304 867.836 771.952C868.376 772.588 868.646 773.422 868.646 774.454C868.646 775.234 868.478 775.906 868.142 776.47C867.806 777.034 867.35 777.43 866.774 777.658C866.726 777.67 866.708 777.7 866.72 777.748L868.682 783.382L868.7 783.454C868.7 783.538 868.646 783.58 868.538 783.58H867.602ZM863.912 772.096C863.864 772.096 863.84 772.12 863.84 772.168V776.722C863.84 776.77 863.864 776.794 863.912 776.794H865.532C866.084 776.794 866.528 776.584 866.864 776.164C867.2 775.732 867.368 775.162 867.368 774.454C867.368 773.746 867.2 773.176 866.864 772.744C866.528 772.312 866.084 772.096 865.532 772.096H863.912ZM870.722 783.58C870.602 783.58 870.542 783.52 870.542 783.4V771.16C870.542 771.04 870.602 770.98 870.722 770.98H871.64C871.76 770.98 871.82 771.04 871.82 771.16V776.992C871.82 777.028 871.832 777.052 871.856 777.064C871.88 777.076 871.898 777.064 871.91 777.028L875.384 771.106C875.444 771.022 875.516 770.98 875.6 770.98H876.608C876.68 770.98 876.728 771.004 876.752 771.052C876.776 771.088 876.77 771.136 876.734 771.196L873.926 776.074C873.902 776.122 873.896 776.158 873.908 776.182L877.004 783.364L877.022 783.436C877.022 783.532 876.968 783.58 876.86 783.58H875.834C875.738 783.58 875.672 783.532 875.636 783.436L873.044 777.316C873.032 777.268 873.002 777.268 872.954 777.316L871.838 779.044C871.826 779.056 871.82 779.086 871.82 779.134V783.4C871.82 783.52 871.76 783.58 871.64 783.58H870.722ZM880.971 783.724C880.083 783.724 879.363 783.43 878.811 782.842C878.259 782.254 877.983 781.486 877.983 780.538V780.124C877.983 780.004 878.043 779.944 878.163 779.944H879.045C879.165 779.944 879.225 780.004 879.225 780.124V780.484C879.225 781.12 879.387 781.636 879.711 782.032C880.035 782.416 880.455 782.608 880.971 782.608C881.475 782.608 881.895 782.422 882.231 782.05C882.567 781.678 882.735 781.186 882.735 780.574C882.735 780.166 882.651 779.818 882.483 779.53C882.327 779.23 882.117 778.972 881.853 778.756C881.601 778.528 881.175 778.186 880.575 777.73C879.975 777.286 879.501 776.908 879.153 776.596C878.805 776.272 878.517 775.888 878.289 775.444C878.073 775 877.965 774.478 877.965 773.878C877.965 772.942 878.235 772.204 878.775 771.664C879.315 771.112 880.017 770.836 880.881 770.836C881.793 770.836 882.519 771.136 883.059 771.736C883.611 772.324 883.887 773.11 883.887 774.094V774.544C883.887 774.664 883.827 774.724 883.707 774.724H882.807C882.687 774.724 882.627 774.664 882.627 774.544V774.076C882.627 773.44 882.465 772.93 882.141 772.546C881.829 772.15 881.409 771.952 880.881 771.952C880.401 771.952 880.005 772.126 879.693 772.474C879.381 772.81 879.225 773.29 879.225 773.914C879.225 774.286 879.291 774.616 879.423 774.904C879.567 775.18 879.777 775.444 880.053 775.696C880.329 775.948 880.737 776.278 881.277 776.686C881.997 777.214 882.531 777.646 882.879 777.982C883.239 778.306 883.515 778.666 883.707 779.062C883.899 779.446 883.995 779.914 883.995 780.466C883.995 781.45 883.713 782.242 883.149 782.842C882.585 783.43 881.859 783.724 880.971 783.724Z" fill="#F2F2F2"/>
<path d="M767 777.08C768.2 777.08 803.167 777.08 820.5 777.08M820.5 777.08L814 770.58M820.5 777.08L814 783.58" stroke="#FBFBFB"/>
<path d="M-140 894.143C45.791 796.231 243.438 797.008 433.307 894.143C634.84 982.428 852.937 967.815 1002 894.143" stroke="url(#paint4_linear)"/>
</g>
<defs>
<filter id="filter0_f" x="-472" y="149" width="1920.72" height="1414.65" filterUnits="userSpaceOnUse" color-interpolation-filters="sRGB">
<feFlood flood-opacity="0" result="BackgroundImageFix"/>
<feBlend mode="normal" in="SourceGraphic" in2="BackgroundImageFix" result="shape"/>
<feGaussianBlur stdDeviation="215" result="effect1_foregroundBlur"/>
</filter>
<filter id="filter1_f" x="334" y="-221" width="1923.96" height="1426.36" filterUnits="userSpaceOnUse" color-interpolation-filters="sRGB">
<feFlood flood-opacity="0" result="BackgroundImageFix"/>
<feBlend mode="normal" in="SourceGraphic" in2="BackgroundImageFix" result="shape"/>
<feGaussianBlur stdDeviation="215" result="effect1_foregroundBlur"/>
</filter>
<linearGradient id="paint0_linear" x1="1593.95" y1="330.062" x2="1596.16" y2="155.286" gradientUnits="userSpaceOnUse">
<stop stop-color="#EE4747" stop-opacity="0.08"/>
<stop offset="1" stop-color="#EE4747" stop-opacity="0.72"/>
</linearGradient>
<linearGradient id="paint1_linear" x1="683.5" y1="499" x2="683.5" y2="578" gradientUnits="userSpaceOnUse">
<stop stop-color="#C80C0C"/>
<stop offset="1" stop-color="#F35555" stop-opacity="0.99"/>
</linearGradient>
<linearGradient id="paint2_linear" x1="521.5" y1="586" x2="521.5" y2="665" gradientUnits="userSpaceOnUse">
<stop stop-color="#C80C0C"/>
<stop offset="1" stop-color="#F35555" stop-opacity="0.99"/>
</linearGradient>
<linearGradient id="paint3_linear" x1="864" y1="704.58" x2="864" y2="844.58" gradientUnits="userSpaceOnUse">
<stop stop-color="#EE4747" stop-opacity="0.08"/>
<stop offset="1" stop-color="#EE4747" stop-opacity="0.72"/>
</linearGradient>
<linearGradient id="paint4_linear" x1="431" y1="821" x2="431" y2="955" gradientUnits="userSpaceOnUse">
<stop stop-color="#EE4747" stop-opacity="0.08"/>
<stop offset="1" stop-color="#EE4747" stop-opacity="0.72"/>
</linearGradient>
<clipPath id="clip0">
<rect width="1920" height="1080" fill="white"/>
</clipPath>
</defs>
</svg>
